%TF.GenerationSoftware,KiCad,Pcbnew,10.0.0*%
%TF.CreationDate,2026-04-22T14:40:16+02:00*%
%TF.ProjectId,ghostlight,67686f73-746c-4696-9768-742e6b696361,rev?*%
%TF.SameCoordinates,Original*%
%TF.FileFunction,Copper,L2,Bot*%
%TF.FilePolarity,Positive*%
%FSLAX46Y46*%
G04 Gerber Fmt 4.6, Leading zero omitted, Abs format (unit mm)*
G04 Created by KiCad (PCBNEW 10.0.0) date 2026-04-22 14:40:16*
%MOMM*%
%LPD*%
G01*
G04 APERTURE LIST*
%TA.AperFunction,SMDPad,CuDef*%
%ADD10R,5.100000X5.100000*%
%TD*%
%TA.AperFunction,SMDPad,CuDef*%
%ADD11R,2.500000X5.100000*%
%TD*%
%TA.AperFunction,ViaPad*%
%ADD12C,0.600000*%
%TD*%
%TA.AperFunction,Conductor*%
%ADD13C,0.200000*%
%TD*%
%TA.AperFunction,Conductor*%
%ADD14C,0.400000*%
%TD*%
G04 APERTURE END LIST*
D10*
%TO.P,BT1,1,+_1_1*%
%TO.N,GND*%
X155000000Y-100000000D03*
D11*
%TO.P,BT1,2,+_2_2*%
%TO.N,V_BAT*%
X143550000Y-100000000D03*
%TO.P,BT1,3,-_3*%
X166450000Y-100000000D03*
%TD*%
D12*
%TO.N,GND*%
X150000000Y-105500000D03*
X151500000Y-98500000D03*
X153500000Y-93000000D03*
X159000000Y-99000000D03*
X148500000Y-93500000D03*
X161900000Y-96000000D03*
X151000000Y-97500000D03*
%TO.N,3.3V*%
X160000000Y-92400000D03*
X160000000Y-94100000D03*
%TO.N,Net-(IC3-OUT1)*%
X154500000Y-103900000D03*
X154500000Y-106500000D03*
%TO.N,V_BAT*%
X155855048Y-104500000D03*
X146000000Y-102000000D03*
X151500000Y-106000000D03*
%TD*%
%TO.N,GND*%
D13*
X156255048Y-99755048D02*
X155900000Y-99400000D01*
X155900000Y-99400000D02*
X155900000Y-98044265D01*
D14*
X153425000Y-100575000D02*
X153000000Y-101000000D01*
D13*
X156255048Y-100513876D02*
X156255048Y-99755048D01*
D14*
X153850000Y-101000000D02*
X153425000Y-100575000D01*
%TO.N,3.3V*%
X160000000Y-92400000D02*
X160000000Y-94100000D01*
%TO.N,Net-(IC3-OUT1)*%
D13*
X154500000Y-103900000D02*
X154500000Y-106500000D01*
%TO.N,V_BAT*%
D14*
X144000000Y-100000000D02*
X146000000Y-102000000D01*
X151500000Y-107000000D02*
X151500000Y-106000000D01*
X166450000Y-103050000D02*
X160500000Y-109000000D01*
X144000000Y-100450000D02*
X143550000Y-100000000D01*
X156000000Y-109000000D02*
X153500000Y-109000000D01*
X153500000Y-109000000D02*
X151500000Y-107000000D01*
X143550000Y-100000000D02*
X144000000Y-100000000D01*
X166450000Y-100000000D02*
X166450000Y-103050000D01*
X160500000Y-109000000D02*
X156000000Y-109000000D01*
X155855048Y-108855048D02*
X156000000Y-109000000D01*
X155855048Y-104500000D02*
X155855048Y-108855048D01*
%TD*%
%TA.AperFunction,Conductor*%
%TO.N,GND*%
G36*
X155343530Y-87005125D02*
G01*
X155387899Y-87007450D01*
X156016701Y-87040403D01*
X156023126Y-87040909D01*
X156693590Y-87111378D01*
X156699962Y-87112217D01*
X157297668Y-87206884D01*
X157365763Y-87217670D01*
X157372146Y-87218853D01*
X157547473Y-87256119D01*
X158031498Y-87359002D01*
X158037785Y-87360511D01*
X158688938Y-87534987D01*
X158695140Y-87536824D01*
X159336241Y-87745131D01*
X159342338Y-87747289D01*
X159971661Y-87988864D01*
X159977654Y-87991346D01*
X160593478Y-88265529D01*
X160599304Y-88268307D01*
X160971333Y-88457866D01*
X161199938Y-88574346D01*
X161205643Y-88577444D01*
X161789428Y-88914492D01*
X161794927Y-88917862D01*
X162360292Y-89285014D01*
X162365609Y-89288669D01*
X162910960Y-89684889D01*
X162916111Y-89688841D01*
X163439979Y-90113062D01*
X163444915Y-90117278D01*
X163945855Y-90568326D01*
X163950564Y-90572795D01*
X164427204Y-91049435D01*
X164431673Y-91054144D01*
X164882721Y-91555084D01*
X164886937Y-91560020D01*
X165311158Y-92083888D01*
X165315109Y-92089038D01*
X165710684Y-92633501D01*
X165711319Y-92634374D01*
X165714996Y-92639724D01*
X166082126Y-93205054D01*
X166085518Y-93210589D01*
X166422555Y-93794356D01*
X166425653Y-93800061D01*
X166731683Y-94400678D01*
X166734478Y-94406538D01*
X167008651Y-95022341D01*
X167011135Y-95028338D01*
X167252705Y-95657649D01*
X167254872Y-95663769D01*
X167463171Y-96304848D01*
X167465015Y-96311072D01*
X167594256Y-96793406D01*
X167592593Y-96863256D01*
X167553431Y-96921119D01*
X167489202Y-96948623D01*
X167474481Y-96949500D01*
X165152129Y-96949500D01*
X165152123Y-96949501D01*
X165092516Y-96955908D01*
X164957671Y-97006202D01*
X164957664Y-97006206D01*
X164842455Y-97092452D01*
X164842452Y-97092455D01*
X164756206Y-97207664D01*
X164756202Y-97207671D01*
X164705908Y-97342517D01*
X164699501Y-97402116D01*
X164699501Y-97402123D01*
X164699500Y-97402135D01*
X164699500Y-102597870D01*
X164699501Y-102597876D01*
X164705908Y-102657483D01*
X164756202Y-102792328D01*
X164756206Y-102792335D01*
X164842452Y-102907544D01*
X164842455Y-102907547D01*
X164957664Y-102993793D01*
X164957671Y-102993797D01*
X165002618Y-103010561D01*
X165092517Y-103044091D01*
X165152127Y-103050500D01*
X165159471Y-103050499D01*
X165226510Y-103070177D01*
X165272270Y-103122977D01*
X165282220Y-103192135D01*
X165253201Y-103255693D01*
X165247161Y-103262180D01*
X160246162Y-108263181D01*
X160184839Y-108296666D01*
X160158481Y-108299500D01*
X156679548Y-108299500D01*
X156612509Y-108279815D01*
X156566754Y-108227011D01*
X156555548Y-108175500D01*
X156555548Y-104925316D01*
X156564987Y-104877864D01*
X156624783Y-104733501D01*
X156624785Y-104733497D01*
X156655548Y-104578842D01*
X156655548Y-104421158D01*
X156655548Y-104421155D01*
X156655547Y-104421153D01*
X156639872Y-104342350D01*
X156624785Y-104266503D01*
X156624783Y-104266498D01*
X156564445Y-104120827D01*
X156564438Y-104120814D01*
X156476837Y-103989711D01*
X156476834Y-103989707D01*
X156365340Y-103878213D01*
X156365336Y-103878210D01*
X156234233Y-103790609D01*
X156234220Y-103790602D01*
X156088549Y-103730264D01*
X156088537Y-103730261D01*
X155933893Y-103699500D01*
X155933890Y-103699500D01*
X155776206Y-103699500D01*
X155776203Y-103699500D01*
X155621558Y-103730261D01*
X155621546Y-103730264D01*
X155475875Y-103790602D01*
X155475864Y-103790608D01*
X155470012Y-103794519D01*
X155403334Y-103815396D01*
X155335954Y-103796911D01*
X155289264Y-103744931D01*
X155279505Y-103715607D01*
X155269738Y-103666510D01*
X155269737Y-103666503D01*
X155269735Y-103666498D01*
X155209397Y-103520827D01*
X155209390Y-103520814D01*
X155121789Y-103389711D01*
X155121786Y-103389707D01*
X155010292Y-103278213D01*
X155010288Y-103278210D01*
X154879185Y-103190609D01*
X154879176Y-103190604D01*
X154826547Y-103168805D01*
X154772144Y-103124964D01*
X154750079Y-103058670D01*
X154750000Y-103054244D01*
X154750000Y-103050000D01*
X155250000Y-103050000D01*
X157597828Y-103050000D01*
X157597844Y-103049999D01*
X157657372Y-103043598D01*
X157657379Y-103043596D01*
X157792086Y-102993354D01*
X157792093Y-102993350D01*
X157907187Y-102907190D01*
X157907190Y-102907187D01*
X157993350Y-102792093D01*
X157993354Y-102792086D01*
X158043596Y-102657379D01*
X158043598Y-102657372D01*
X158049999Y-102597844D01*
X158050000Y-102597827D01*
X158050000Y-100250000D01*
X155250000Y-100250000D01*
X155250000Y-103050000D01*
X154750000Y-103050000D01*
X154750000Y-100250000D01*
X151950000Y-100250000D01*
X151950000Y-102597844D01*
X151956401Y-102657372D01*
X151956403Y-102657379D01*
X152006645Y-102792086D01*
X152006649Y-102792093D01*
X152092809Y-102907187D01*
X152092812Y-102907190D01*
X152207906Y-102993350D01*
X152207913Y-102993354D01*
X152342620Y-103043596D01*
X152342627Y-103043598D01*
X152402155Y-103049999D01*
X152402172Y-103050000D01*
X153922479Y-103050000D01*
X153989518Y-103069685D01*
X154035273Y-103122489D01*
X154045217Y-103191647D01*
X154016192Y-103255203D01*
X153991371Y-103277101D01*
X153989714Y-103278208D01*
X153989707Y-103278213D01*
X153878213Y-103389707D01*
X153878210Y-103389711D01*
X153790609Y-103520814D01*
X153790602Y-103520827D01*
X153730264Y-103666498D01*
X153730261Y-103666510D01*
X153699500Y-103821153D01*
X153699500Y-103978846D01*
X153730261Y-104133489D01*
X153730264Y-104133501D01*
X153790602Y-104279172D01*
X153790609Y-104279185D01*
X153878602Y-104410874D01*
X153899480Y-104477551D01*
X153899500Y-104479765D01*
X153899500Y-105920234D01*
X153879815Y-105987273D01*
X153878602Y-105989125D01*
X153790609Y-106120814D01*
X153790602Y-106120827D01*
X153730264Y-106266498D01*
X153730261Y-106266510D01*
X153699500Y-106421153D01*
X153699500Y-106578846D01*
X153730261Y-106733489D01*
X153730264Y-106733501D01*
X153790602Y-106879172D01*
X153790609Y-106879185D01*
X153878210Y-107010288D01*
X153878213Y-107010292D01*
X153989707Y-107121786D01*
X153989711Y-107121789D01*
X154120814Y-107209390D01*
X154120827Y-107209397D01*
X154266498Y-107269735D01*
X154266503Y-107269737D01*
X154421153Y-107300499D01*
X154421156Y-107300500D01*
X154421158Y-107300500D01*
X154578844Y-107300500D01*
X154578845Y-107300499D01*
X154733497Y-107269737D01*
X154879179Y-107209394D01*
X154961657Y-107154284D01*
X155028334Y-107133406D01*
X155095714Y-107151890D01*
X155142405Y-107203869D01*
X155154548Y-107257386D01*
X155154548Y-108175500D01*
X155134863Y-108242539D01*
X155082059Y-108288294D01*
X155030548Y-108299500D01*
X153841519Y-108299500D01*
X153774480Y-108279815D01*
X153753838Y-108263181D01*
X152236819Y-106746162D01*
X152203334Y-106684839D01*
X152200500Y-106658481D01*
X152200500Y-106425316D01*
X152209939Y-106377864D01*
X152238478Y-106308963D01*
X152269737Y-106233497D01*
X152300500Y-106078842D01*
X152300500Y-105921158D01*
X152300500Y-105921155D01*
X152300499Y-105921153D01*
X152269738Y-105766510D01*
X152269737Y-105766503D01*
X152269735Y-105766498D01*
X152209397Y-105620827D01*
X152209390Y-105620814D01*
X152121789Y-105489711D01*
X152121786Y-105489707D01*
X152010292Y-105378213D01*
X152010288Y-105378210D01*
X151879185Y-105290609D01*
X151879172Y-105290602D01*
X151733501Y-105230264D01*
X151733489Y-105230261D01*
X151578845Y-105199500D01*
X151578842Y-105199500D01*
X151421158Y-105199500D01*
X151421155Y-105199500D01*
X151266510Y-105230261D01*
X151266498Y-105230264D01*
X151120827Y-105290602D01*
X151120814Y-105290609D01*
X150989711Y-105378210D01*
X150989707Y-105378213D01*
X150878213Y-105489707D01*
X150878210Y-105489711D01*
X150790609Y-105620814D01*
X150790602Y-105620827D01*
X150730264Y-105766498D01*
X150730261Y-105766510D01*
X150699500Y-105921153D01*
X150699500Y-106078846D01*
X150730261Y-106233489D01*
X150730264Y-106233501D01*
X150790061Y-106377864D01*
X150799500Y-106425316D01*
X150799500Y-106931006D01*
X150799500Y-107068994D01*
X150799500Y-107068996D01*
X150799499Y-107068996D01*
X150826418Y-107204322D01*
X150826421Y-107204332D01*
X150879222Y-107331807D01*
X150955887Y-107446545D01*
X153053454Y-109544112D01*
X153168192Y-109620777D01*
X153295667Y-109673578D01*
X153295672Y-109673580D01*
X153295676Y-109673580D01*
X153295677Y-109673581D01*
X153431004Y-109700500D01*
X153431007Y-109700500D01*
X160568996Y-109700500D01*
X160660040Y-109682389D01*
X160704328Y-109673580D01*
X160783920Y-109640612D01*
X160831807Y-109620777D01*
X160831808Y-109620776D01*
X160831811Y-109620775D01*
X160946543Y-109544114D01*
X166994114Y-103496543D01*
X167070775Y-103381811D01*
X167123580Y-103254328D01*
X167135951Y-103192135D01*
X167144272Y-103150307D01*
X167176657Y-103088396D01*
X167237373Y-103053822D01*
X167265889Y-103050499D01*
X167474482Y-103050499D01*
X167541521Y-103070184D01*
X167587276Y-103122988D01*
X167597220Y-103192146D01*
X167594257Y-103206588D01*
X167579362Y-103262180D01*
X167465015Y-103688927D01*
X167463171Y-103695151D01*
X167254872Y-104336230D01*
X167252705Y-104342350D01*
X167011135Y-104971661D01*
X167008651Y-104977658D01*
X166734478Y-105593461D01*
X166731683Y-105599321D01*
X166425653Y-106199938D01*
X166422555Y-106205643D01*
X166085518Y-106789410D01*
X166082126Y-106794945D01*
X165714996Y-107360275D01*
X165711319Y-107365625D01*
X165315110Y-107910960D01*
X165311158Y-107916111D01*
X164886937Y-108439979D01*
X164882721Y-108444915D01*
X164431673Y-108945855D01*
X164427204Y-108950564D01*
X163950564Y-109427204D01*
X163945855Y-109431673D01*
X163444915Y-109882721D01*
X163439979Y-109886937D01*
X162916111Y-110311158D01*
X162910960Y-110315110D01*
X162365625Y-110711319D01*
X162360275Y-110714996D01*
X161794945Y-111082126D01*
X161789410Y-111085518D01*
X161205643Y-111422555D01*
X161199938Y-111425653D01*
X160599321Y-111731683D01*
X160593461Y-111734478D01*
X159977658Y-112008651D01*
X159971661Y-112011135D01*
X159342350Y-112252705D01*
X159336230Y-112254872D01*
X158695151Y-112463171D01*
X158688927Y-112465015D01*
X158037798Y-112639485D01*
X158031485Y-112641000D01*
X157372146Y-112781146D01*
X157365763Y-112782329D01*
X156699994Y-112887777D01*
X156693558Y-112888625D01*
X156023151Y-112959088D01*
X156016679Y-112959597D01*
X155343531Y-112994875D01*
X155337041Y-112995045D01*
X154662959Y-112995045D01*
X154656469Y-112994875D01*
X153983320Y-112959597D01*
X153976848Y-112959088D01*
X153306441Y-112888625D01*
X153300005Y-112887777D01*
X152634236Y-112782329D01*
X152627853Y-112781146D01*
X151968514Y-112641000D01*
X151962201Y-112639485D01*
X151311072Y-112465015D01*
X151304848Y-112463171D01*
X150663769Y-112254872D01*
X150657649Y-112252705D01*
X150028338Y-112011135D01*
X150022341Y-112008651D01*
X149406538Y-111734478D01*
X149400678Y-111731683D01*
X148800061Y-111425653D01*
X148794356Y-111422555D01*
X148210589Y-111085518D01*
X148205054Y-111082126D01*
X147639724Y-110714996D01*
X147634374Y-110711319D01*
X147089039Y-110315110D01*
X147083888Y-110311158D01*
X146560020Y-109886937D01*
X146555084Y-109882721D01*
X146054144Y-109431673D01*
X146049435Y-109427204D01*
X145572795Y-108950564D01*
X145568326Y-108945855D01*
X145117278Y-108444915D01*
X145113062Y-108439979D01*
X144688841Y-107916111D01*
X144684889Y-107910960D01*
X144347472Y-107446545D01*
X144288669Y-107365609D01*
X144285014Y-107360292D01*
X143917862Y-106794927D01*
X143914492Y-106789428D01*
X143577444Y-106205643D01*
X143574346Y-106199938D01*
X143534030Y-106120814D01*
X143268307Y-105599304D01*
X143265529Y-105593478D01*
X142991346Y-104977654D01*
X142988864Y-104971661D01*
X142958473Y-104892489D01*
X142747289Y-104342338D01*
X142745127Y-104336230D01*
X142722471Y-104266503D01*
X142536824Y-103695140D01*
X142534984Y-103688927D01*
X142528977Y-103666510D01*
X142454808Y-103389707D01*
X142405743Y-103206593D01*
X142407406Y-103136743D01*
X142446568Y-103078880D01*
X142510797Y-103051376D01*
X142525518Y-103050499D01*
X144847871Y-103050499D01*
X144847872Y-103050499D01*
X144907483Y-103044091D01*
X145042331Y-102993796D01*
X145157546Y-102907546D01*
X145243796Y-102792331D01*
X145243888Y-102792086D01*
X145289500Y-102669791D01*
X145331370Y-102613857D01*
X145396834Y-102589439D01*
X145465107Y-102604290D01*
X145484361Y-102618703D01*
X145485001Y-102617924D01*
X145489711Y-102621789D01*
X145620814Y-102709390D01*
X145620827Y-102709397D01*
X145766498Y-102769735D01*
X145766503Y-102769737D01*
X145921153Y-102800499D01*
X145921156Y-102800500D01*
X145921158Y-102800500D01*
X146078844Y-102800500D01*
X146078845Y-102800499D01*
X146233497Y-102769737D01*
X146379179Y-102709394D01*
X146510289Y-102621789D01*
X146621789Y-102510289D01*
X146709394Y-102379179D01*
X146769737Y-102233497D01*
X146800500Y-102078842D01*
X146800500Y-101921158D01*
X146800500Y-101921155D01*
X146800499Y-101921153D01*
X146769738Y-101766510D01*
X146769737Y-101766503D01*
X146769735Y-101766498D01*
X146709397Y-101620827D01*
X146709390Y-101620814D01*
X146621789Y-101489711D01*
X146621786Y-101489707D01*
X146510292Y-101378213D01*
X146510288Y-101378210D01*
X146379185Y-101290609D01*
X146379172Y-101290602D01*
X146234814Y-101230808D01*
X146194585Y-101203928D01*
X145336818Y-100346161D01*
X145303333Y-100284838D01*
X145300499Y-100258480D01*
X145300499Y-97402155D01*
X151950000Y-97402155D01*
X151950000Y-99750000D01*
X154750000Y-99750000D01*
X155250000Y-99750000D01*
X158050000Y-99750000D01*
X158050000Y-97402172D01*
X158049999Y-97402155D01*
X158043598Y-97342627D01*
X158043596Y-97342620D01*
X157993354Y-97207913D01*
X157993350Y-97207906D01*
X157907190Y-97092812D01*
X157907187Y-97092809D01*
X157792093Y-97006649D01*
X157792086Y-97006645D01*
X157657379Y-96956403D01*
X157657372Y-96956401D01*
X157597844Y-96950000D01*
X155250000Y-96950000D01*
X155250000Y-99750000D01*
X154750000Y-99750000D01*
X154750000Y-96950000D01*
X152402155Y-96950000D01*
X152342627Y-96956401D01*
X152342620Y-96956403D01*
X152207913Y-97006645D01*
X152207906Y-97006649D01*
X152092812Y-97092809D01*
X152092809Y-97092812D01*
X152006649Y-97207906D01*
X152006645Y-97207913D01*
X151956403Y-97342620D01*
X151956401Y-97342627D01*
X151950000Y-97402155D01*
X145300499Y-97402155D01*
X145300499Y-97402129D01*
X145300498Y-97402123D01*
X145300497Y-97402116D01*
X145294091Y-97342517D01*
X145243884Y-97207906D01*
X145243797Y-97207671D01*
X145243793Y-97207664D01*
X145157547Y-97092455D01*
X145157544Y-97092452D01*
X145042335Y-97006206D01*
X145042328Y-97006202D01*
X144907482Y-96955908D01*
X144907483Y-96955908D01*
X144847883Y-96949501D01*
X144847881Y-96949500D01*
X144847873Y-96949500D01*
X144847865Y-96949500D01*
X142525518Y-96949500D01*
X142458479Y-96929815D01*
X142412724Y-96877011D01*
X142402780Y-96807853D01*
X142405743Y-96793406D01*
X142459815Y-96591606D01*
X142534990Y-96311051D01*
X142536821Y-96304869D01*
X142745135Y-95663745D01*
X142747285Y-95657673D01*
X142988870Y-95028321D01*
X142991340Y-95022358D01*
X143265536Y-94406506D01*
X143268300Y-94400710D01*
X143574354Y-93800045D01*
X143577435Y-93794371D01*
X143914502Y-93210554D01*
X143917851Y-93205089D01*
X144285026Y-92639689D01*
X144288656Y-92634408D01*
X144516249Y-92321153D01*
X159199500Y-92321153D01*
X159199500Y-92478846D01*
X159230261Y-92633489D01*
X159230264Y-92633501D01*
X159290061Y-92777864D01*
X159299500Y-92825316D01*
X159299500Y-93674684D01*
X159290061Y-93722136D01*
X159230264Y-93866498D01*
X159230261Y-93866510D01*
X159199500Y-94021153D01*
X159199500Y-94178846D01*
X159230261Y-94333489D01*
X159230264Y-94333501D01*
X159290602Y-94479172D01*
X159290609Y-94479185D01*
X159378210Y-94610288D01*
X159378213Y-94610292D01*
X159489707Y-94721786D01*
X159489711Y-94721789D01*
X159620814Y-94809390D01*
X159620827Y-94809397D01*
X159766498Y-94869735D01*
X159766503Y-94869737D01*
X159921153Y-94900499D01*
X159921156Y-94900500D01*
X159921158Y-94900500D01*
X160078844Y-94900500D01*
X160078845Y-94900499D01*
X160233497Y-94869737D01*
X160379179Y-94809394D01*
X160510289Y-94721789D01*
X160621789Y-94610289D01*
X160709394Y-94479179D01*
X160769737Y-94333497D01*
X160800500Y-94178842D01*
X160800500Y-94021158D01*
X160800500Y-94021155D01*
X160800499Y-94021153D01*
X160769738Y-93866510D01*
X160769737Y-93866503D01*
X160709939Y-93722136D01*
X160700500Y-93674684D01*
X160700500Y-92825316D01*
X160709939Y-92777864D01*
X160738478Y-92708963D01*
X160769737Y-92633497D01*
X160800500Y-92478842D01*
X160800500Y-92321158D01*
X160800500Y-92321155D01*
X160800499Y-92321153D01*
X160769738Y-92166510D01*
X160769737Y-92166503D01*
X160728651Y-92067311D01*
X160709397Y-92020827D01*
X160709390Y-92020814D01*
X160621789Y-91889711D01*
X160621786Y-91889707D01*
X160510292Y-91778213D01*
X160510288Y-91778210D01*
X160379185Y-91690609D01*
X160379172Y-91690602D01*
X160233501Y-91630264D01*
X160233489Y-91630261D01*
X160078845Y-91599500D01*
X160078842Y-91599500D01*
X159921158Y-91599500D01*
X159921155Y-91599500D01*
X159766510Y-91630261D01*
X159766498Y-91630264D01*
X159620827Y-91690602D01*
X159620814Y-91690609D01*
X159489711Y-91778210D01*
X159489707Y-91778213D01*
X159378213Y-91889707D01*
X159378210Y-91889711D01*
X159290609Y-92020814D01*
X159290602Y-92020827D01*
X159230264Y-92166498D01*
X159230261Y-92166510D01*
X159199500Y-92321153D01*
X144516249Y-92321153D01*
X144684908Y-92089014D01*
X144688822Y-92083912D01*
X145113068Y-91560012D01*
X145117278Y-91555084D01*
X145190184Y-91474114D01*
X145568344Y-91054124D01*
X145572776Y-91049454D01*
X146049454Y-90572776D01*
X146054124Y-90568344D01*
X146555092Y-90117271D01*
X146560020Y-90113062D01*
X147083912Y-89688822D01*
X147089014Y-89684908D01*
X147634408Y-89288656D01*
X147639689Y-89285026D01*
X148205089Y-88917851D01*
X148210554Y-88914502D01*
X148794371Y-88577435D01*
X148800045Y-88574354D01*
X149400710Y-88268300D01*
X149406506Y-88265536D01*
X150022358Y-87991340D01*
X150028321Y-87988870D01*
X150657673Y-87747285D01*
X150663745Y-87745135D01*
X151304869Y-87536821D01*
X151311051Y-87534990D01*
X151962222Y-87360508D01*
X151968492Y-87359004D01*
X152627855Y-87218852D01*
X152634236Y-87217670D01*
X153300042Y-87112217D01*
X153306404Y-87111378D01*
X153976876Y-87040908D01*
X153983295Y-87040404D01*
X154615324Y-87007281D01*
X154656470Y-87005125D01*
X154662959Y-87004955D01*
X155337041Y-87004955D01*
X155343530Y-87005125D01*
G37*
%TD.AperFunction*%
%TD*%
M02*
