%TF.GenerationSoftware,KiCad,Pcbnew,10.0.0*%
%TF.CreationDate,2026-05-18T13:48:15+02:00*%
%TF.ProjectId,ghostlight,67686f73-746c-4696-9768-742e6b696361,rev?*%
%TF.SameCoordinates,Original*%
%TF.FileFunction,Legend,Top*%
%TF.FilePolarity,Positive*%
%FSLAX46Y46*%
G04 Gerber Fmt 4.6, Leading zero omitted, Abs format (unit mm)*
G04 Created by KiCad (PCBNEW 10.0.0) date 2026-05-18 13:48:15*
%MOMM*%
%LPD*%
G01*
G04 APERTURE LIST*
%ADD10C,0.125000*%
%ADD11C,0.150000*%
%ADD12C,0.254000*%
%ADD13C,0.200000*%
%ADD14C,0.100000*%
%ADD15C,0.000000*%
%ADD16C,0.120000*%
G04 APERTURE END LIST*
D10*
X148986997Y-107432309D02*
X148820331Y-107194214D01*
X148701283Y-107432309D02*
X148701283Y-106932309D01*
X148701283Y-106932309D02*
X148891759Y-106932309D01*
X148891759Y-106932309D02*
X148939378Y-106956119D01*
X148939378Y-106956119D02*
X148963188Y-106979928D01*
X148963188Y-106979928D02*
X148986997Y-107027547D01*
X148986997Y-107027547D02*
X148986997Y-107098976D01*
X148986997Y-107098976D02*
X148963188Y-107146595D01*
X148963188Y-107146595D02*
X148939378Y-107170404D01*
X148939378Y-107170404D02*
X148891759Y-107194214D01*
X148891759Y-107194214D02*
X148701283Y-107194214D01*
X149177474Y-107408500D02*
X149248902Y-107432309D01*
X149248902Y-107432309D02*
X149367950Y-107432309D01*
X149367950Y-107432309D02*
X149415569Y-107408500D01*
X149415569Y-107408500D02*
X149439378Y-107384690D01*
X149439378Y-107384690D02*
X149463188Y-107337071D01*
X149463188Y-107337071D02*
X149463188Y-107289452D01*
X149463188Y-107289452D02*
X149439378Y-107241833D01*
X149439378Y-107241833D02*
X149415569Y-107218023D01*
X149415569Y-107218023D02*
X149367950Y-107194214D01*
X149367950Y-107194214D02*
X149272712Y-107170404D01*
X149272712Y-107170404D02*
X149225093Y-107146595D01*
X149225093Y-107146595D02*
X149201283Y-107122785D01*
X149201283Y-107122785D02*
X149177474Y-107075166D01*
X149177474Y-107075166D02*
X149177474Y-107027547D01*
X149177474Y-107027547D02*
X149201283Y-106979928D01*
X149201283Y-106979928D02*
X149225093Y-106956119D01*
X149225093Y-106956119D02*
X149272712Y-106932309D01*
X149272712Y-106932309D02*
X149391759Y-106932309D01*
X149391759Y-106932309D02*
X149463188Y-106956119D01*
X149606045Y-106932309D02*
X149891759Y-106932309D01*
X149748902Y-107432309D02*
X149748902Y-106932309D01*
X159677474Y-93408500D02*
X159748902Y-93432309D01*
X159748902Y-93432309D02*
X159867950Y-93432309D01*
X159867950Y-93432309D02*
X159915569Y-93408500D01*
X159915569Y-93408500D02*
X159939378Y-93384690D01*
X159939378Y-93384690D02*
X159963188Y-93337071D01*
X159963188Y-93337071D02*
X159963188Y-93289452D01*
X159963188Y-93289452D02*
X159939378Y-93241833D01*
X159939378Y-93241833D02*
X159915569Y-93218023D01*
X159915569Y-93218023D02*
X159867950Y-93194214D01*
X159867950Y-93194214D02*
X159772712Y-93170404D01*
X159772712Y-93170404D02*
X159725093Y-93146595D01*
X159725093Y-93146595D02*
X159701283Y-93122785D01*
X159701283Y-93122785D02*
X159677474Y-93075166D01*
X159677474Y-93075166D02*
X159677474Y-93027547D01*
X159677474Y-93027547D02*
X159701283Y-92979928D01*
X159701283Y-92979928D02*
X159725093Y-92956119D01*
X159725093Y-92956119D02*
X159772712Y-92932309D01*
X159772712Y-92932309D02*
X159891759Y-92932309D01*
X159891759Y-92932309D02*
X159963188Y-92956119D01*
X160129854Y-92932309D02*
X160248902Y-93432309D01*
X160248902Y-93432309D02*
X160344140Y-93075166D01*
X160344140Y-93075166D02*
X160439378Y-93432309D01*
X160439378Y-93432309D02*
X160558426Y-92932309D01*
X161034616Y-93384690D02*
X161010807Y-93408500D01*
X161010807Y-93408500D02*
X160939378Y-93432309D01*
X160939378Y-93432309D02*
X160891759Y-93432309D01*
X160891759Y-93432309D02*
X160820331Y-93408500D01*
X160820331Y-93408500D02*
X160772712Y-93360880D01*
X160772712Y-93360880D02*
X160748902Y-93313261D01*
X160748902Y-93313261D02*
X160725093Y-93218023D01*
X160725093Y-93218023D02*
X160725093Y-93146595D01*
X160725093Y-93146595D02*
X160748902Y-93051357D01*
X160748902Y-93051357D02*
X160772712Y-93003738D01*
X160772712Y-93003738D02*
X160820331Y-92956119D01*
X160820331Y-92956119D02*
X160891759Y-92932309D01*
X160891759Y-92932309D02*
X160939378Y-92932309D01*
X160939378Y-92932309D02*
X161010807Y-92956119D01*
X161010807Y-92956119D02*
X161034616Y-92979928D01*
X161486997Y-93432309D02*
X161248902Y-93432309D01*
X161248902Y-93432309D02*
X161248902Y-92932309D01*
X161653664Y-93432309D02*
X161653664Y-92932309D01*
X161939378Y-93432309D02*
X161725093Y-93146595D01*
X161939378Y-92932309D02*
X161653664Y-93218023D01*
X162677474Y-100408500D02*
X162748902Y-100432309D01*
X162748902Y-100432309D02*
X162867950Y-100432309D01*
X162867950Y-100432309D02*
X162915569Y-100408500D01*
X162915569Y-100408500D02*
X162939378Y-100384690D01*
X162939378Y-100384690D02*
X162963188Y-100337071D01*
X162963188Y-100337071D02*
X162963188Y-100289452D01*
X162963188Y-100289452D02*
X162939378Y-100241833D01*
X162939378Y-100241833D02*
X162915569Y-100218023D01*
X162915569Y-100218023D02*
X162867950Y-100194214D01*
X162867950Y-100194214D02*
X162772712Y-100170404D01*
X162772712Y-100170404D02*
X162725093Y-100146595D01*
X162725093Y-100146595D02*
X162701283Y-100122785D01*
X162701283Y-100122785D02*
X162677474Y-100075166D01*
X162677474Y-100075166D02*
X162677474Y-100027547D01*
X162677474Y-100027547D02*
X162701283Y-99979928D01*
X162701283Y-99979928D02*
X162725093Y-99956119D01*
X162725093Y-99956119D02*
X162772712Y-99932309D01*
X162772712Y-99932309D02*
X162891759Y-99932309D01*
X162891759Y-99932309D02*
X162963188Y-99956119D01*
X163129854Y-99932309D02*
X163248902Y-100432309D01*
X163248902Y-100432309D02*
X163344140Y-100075166D01*
X163344140Y-100075166D02*
X163439378Y-100432309D01*
X163439378Y-100432309D02*
X163558426Y-99932309D01*
X163748902Y-100432309D02*
X163748902Y-99932309D01*
X163748902Y-99932309D02*
X163867950Y-99932309D01*
X163867950Y-99932309D02*
X163939378Y-99956119D01*
X163939378Y-99956119D02*
X163986997Y-100003738D01*
X163986997Y-100003738D02*
X164010807Y-100051357D01*
X164010807Y-100051357D02*
X164034616Y-100146595D01*
X164034616Y-100146595D02*
X164034616Y-100218023D01*
X164034616Y-100218023D02*
X164010807Y-100313261D01*
X164010807Y-100313261D02*
X163986997Y-100360880D01*
X163986997Y-100360880D02*
X163939378Y-100408500D01*
X163939378Y-100408500D02*
X163867950Y-100432309D01*
X163867950Y-100432309D02*
X163748902Y-100432309D01*
X164248902Y-100432309D02*
X164248902Y-99932309D01*
X164582235Y-99932309D02*
X164677473Y-99932309D01*
X164677473Y-99932309D02*
X164725092Y-99956119D01*
X164725092Y-99956119D02*
X164772711Y-100003738D01*
X164772711Y-100003738D02*
X164796521Y-100098976D01*
X164796521Y-100098976D02*
X164796521Y-100265642D01*
X164796521Y-100265642D02*
X164772711Y-100360880D01*
X164772711Y-100360880D02*
X164725092Y-100408500D01*
X164725092Y-100408500D02*
X164677473Y-100432309D01*
X164677473Y-100432309D02*
X164582235Y-100432309D01*
X164582235Y-100432309D02*
X164534616Y-100408500D01*
X164534616Y-100408500D02*
X164486997Y-100360880D01*
X164486997Y-100360880D02*
X164463188Y-100265642D01*
X164463188Y-100265642D02*
X164463188Y-100098976D01*
X164463188Y-100098976D02*
X164486997Y-100003738D01*
X164486997Y-100003738D02*
X164534616Y-99956119D01*
X164534616Y-99956119D02*
X164582235Y-99932309D01*
D11*
X146360588Y-93917438D02*
X146265350Y-93869819D01*
X146265350Y-93869819D02*
X146122493Y-93869819D01*
X146122493Y-93869819D02*
X145979636Y-93917438D01*
X145979636Y-93917438D02*
X145884398Y-94012676D01*
X145884398Y-94012676D02*
X145836779Y-94107914D01*
X145836779Y-94107914D02*
X145789160Y-94298390D01*
X145789160Y-94298390D02*
X145789160Y-94441247D01*
X145789160Y-94441247D02*
X145836779Y-94631723D01*
X145836779Y-94631723D02*
X145884398Y-94726961D01*
X145884398Y-94726961D02*
X145979636Y-94822200D01*
X145979636Y-94822200D02*
X146122493Y-94869819D01*
X146122493Y-94869819D02*
X146217731Y-94869819D01*
X146217731Y-94869819D02*
X146360588Y-94822200D01*
X146360588Y-94822200D02*
X146408207Y-94774580D01*
X146408207Y-94774580D02*
X146408207Y-94441247D01*
X146408207Y-94441247D02*
X146217731Y-94441247D01*
X146836779Y-94869819D02*
X146836779Y-93869819D01*
X146836779Y-93869819D02*
X147408207Y-94869819D01*
X147408207Y-94869819D02*
X147408207Y-93869819D01*
X147884398Y-94869819D02*
X147884398Y-93869819D01*
X147884398Y-93869819D02*
X148122493Y-93869819D01*
X148122493Y-93869819D02*
X148265350Y-93917438D01*
X148265350Y-93917438D02*
X148360588Y-94012676D01*
X148360588Y-94012676D02*
X148408207Y-94107914D01*
X148408207Y-94107914D02*
X148455826Y-94298390D01*
X148455826Y-94298390D02*
X148455826Y-94441247D01*
X148455826Y-94441247D02*
X148408207Y-94631723D01*
X148408207Y-94631723D02*
X148360588Y-94726961D01*
X148360588Y-94726961D02*
X148265350Y-94822200D01*
X148265350Y-94822200D02*
X148122493Y-94869819D01*
X148122493Y-94869819D02*
X147884398Y-94869819D01*
X153693922Y-90369819D02*
X154027255Y-91369819D01*
X154027255Y-91369819D02*
X154360588Y-90369819D01*
X154693922Y-91369819D02*
X154693922Y-90369819D01*
X154693922Y-90369819D02*
X154932017Y-90369819D01*
X154932017Y-90369819D02*
X155074874Y-90417438D01*
X155074874Y-90417438D02*
X155170112Y-90512676D01*
X155170112Y-90512676D02*
X155217731Y-90607914D01*
X155217731Y-90607914D02*
X155265350Y-90798390D01*
X155265350Y-90798390D02*
X155265350Y-90941247D01*
X155265350Y-90941247D02*
X155217731Y-91131723D01*
X155217731Y-91131723D02*
X155170112Y-91226961D01*
X155170112Y-91226961D02*
X155074874Y-91322200D01*
X155074874Y-91322200D02*
X154932017Y-91369819D01*
X154932017Y-91369819D02*
X154693922Y-91369819D01*
X155693922Y-91369819D02*
X155693922Y-90369819D01*
X155693922Y-90369819D02*
X155932017Y-90369819D01*
X155932017Y-90369819D02*
X156074874Y-90417438D01*
X156074874Y-90417438D02*
X156170112Y-90512676D01*
X156170112Y-90512676D02*
X156217731Y-90607914D01*
X156217731Y-90607914D02*
X156265350Y-90798390D01*
X156265350Y-90798390D02*
X156265350Y-90941247D01*
X156265350Y-90941247D02*
X156217731Y-91131723D01*
X156217731Y-91131723D02*
X156170112Y-91226961D01*
X156170112Y-91226961D02*
X156074874Y-91322200D01*
X156074874Y-91322200D02*
X155932017Y-91369819D01*
X155932017Y-91369819D02*
X155693922Y-91369819D01*
D10*
X151416666Y-92177190D02*
X151392857Y-92201000D01*
X151392857Y-92201000D02*
X151321428Y-92224809D01*
X151321428Y-92224809D02*
X151273809Y-92224809D01*
X151273809Y-92224809D02*
X151202381Y-92201000D01*
X151202381Y-92201000D02*
X151154762Y-92153380D01*
X151154762Y-92153380D02*
X151130952Y-92105761D01*
X151130952Y-92105761D02*
X151107143Y-92010523D01*
X151107143Y-92010523D02*
X151107143Y-91939095D01*
X151107143Y-91939095D02*
X151130952Y-91843857D01*
X151130952Y-91843857D02*
X151154762Y-91796238D01*
X151154762Y-91796238D02*
X151202381Y-91748619D01*
X151202381Y-91748619D02*
X151273809Y-91724809D01*
X151273809Y-91724809D02*
X151321428Y-91724809D01*
X151321428Y-91724809D02*
X151392857Y-91748619D01*
X151392857Y-91748619D02*
X151416666Y-91772428D01*
X151845238Y-91891476D02*
X151845238Y-92224809D01*
X151726190Y-91701000D02*
X151607143Y-92058142D01*
X151607143Y-92058142D02*
X151916666Y-92058142D01*
X160224809Y-105583333D02*
X159986714Y-105749999D01*
X160224809Y-105869047D02*
X159724809Y-105869047D01*
X159724809Y-105869047D02*
X159724809Y-105678571D01*
X159724809Y-105678571D02*
X159748619Y-105630952D01*
X159748619Y-105630952D02*
X159772428Y-105607142D01*
X159772428Y-105607142D02*
X159820047Y-105583333D01*
X159820047Y-105583333D02*
X159891476Y-105583333D01*
X159891476Y-105583333D02*
X159939095Y-105607142D01*
X159939095Y-105607142D02*
X159962904Y-105630952D01*
X159962904Y-105630952D02*
X159986714Y-105678571D01*
X159986714Y-105678571D02*
X159986714Y-105869047D01*
X159772428Y-105392856D02*
X159748619Y-105369047D01*
X159748619Y-105369047D02*
X159724809Y-105321428D01*
X159724809Y-105321428D02*
X159724809Y-105202380D01*
X159724809Y-105202380D02*
X159748619Y-105154761D01*
X159748619Y-105154761D02*
X159772428Y-105130952D01*
X159772428Y-105130952D02*
X159820047Y-105107142D01*
X159820047Y-105107142D02*
X159867666Y-105107142D01*
X159867666Y-105107142D02*
X159939095Y-105130952D01*
X159939095Y-105130952D02*
X160224809Y-105416666D01*
X160224809Y-105416666D02*
X160224809Y-105107142D01*
X153724809Y-100559523D02*
X153724809Y-100797618D01*
X153724809Y-100797618D02*
X153224809Y-100797618D01*
X153462904Y-100392856D02*
X153462904Y-100226189D01*
X153724809Y-100154761D02*
X153724809Y-100392856D01*
X153724809Y-100392856D02*
X153224809Y-100392856D01*
X153224809Y-100392856D02*
X153224809Y-100154761D01*
X153724809Y-99940475D02*
X153224809Y-99940475D01*
X153224809Y-99940475D02*
X153224809Y-99821427D01*
X153224809Y-99821427D02*
X153248619Y-99749999D01*
X153248619Y-99749999D02*
X153296238Y-99702380D01*
X153296238Y-99702380D02*
X153343857Y-99678570D01*
X153343857Y-99678570D02*
X153439095Y-99654761D01*
X153439095Y-99654761D02*
X153510523Y-99654761D01*
X153510523Y-99654761D02*
X153605761Y-99678570D01*
X153605761Y-99678570D02*
X153653380Y-99702380D01*
X153653380Y-99702380D02*
X153701000Y-99749999D01*
X153701000Y-99749999D02*
X153724809Y-99821427D01*
X153724809Y-99821427D02*
X153724809Y-99940475D01*
X153724809Y-99178570D02*
X153724809Y-99464284D01*
X153724809Y-99321427D02*
X153224809Y-99321427D01*
X153224809Y-99321427D02*
X153296238Y-99369046D01*
X153296238Y-99369046D02*
X153343857Y-99416665D01*
X153343857Y-99416665D02*
X153367666Y-99464284D01*
X147511905Y-99274809D02*
X147511905Y-98774809D01*
X148035714Y-99227190D02*
X148011905Y-99251000D01*
X148011905Y-99251000D02*
X147940476Y-99274809D01*
X147940476Y-99274809D02*
X147892857Y-99274809D01*
X147892857Y-99274809D02*
X147821429Y-99251000D01*
X147821429Y-99251000D02*
X147773810Y-99203380D01*
X147773810Y-99203380D02*
X147750000Y-99155761D01*
X147750000Y-99155761D02*
X147726191Y-99060523D01*
X147726191Y-99060523D02*
X147726191Y-98989095D01*
X147726191Y-98989095D02*
X147750000Y-98893857D01*
X147750000Y-98893857D02*
X147773810Y-98846238D01*
X147773810Y-98846238D02*
X147821429Y-98798619D01*
X147821429Y-98798619D02*
X147892857Y-98774809D01*
X147892857Y-98774809D02*
X147940476Y-98774809D01*
X147940476Y-98774809D02*
X148011905Y-98798619D01*
X148011905Y-98798619D02*
X148035714Y-98822428D01*
X148226191Y-98822428D02*
X148250000Y-98798619D01*
X148250000Y-98798619D02*
X148297619Y-98774809D01*
X148297619Y-98774809D02*
X148416667Y-98774809D01*
X148416667Y-98774809D02*
X148464286Y-98798619D01*
X148464286Y-98798619D02*
X148488095Y-98822428D01*
X148488095Y-98822428D02*
X148511905Y-98870047D01*
X148511905Y-98870047D02*
X148511905Y-98917666D01*
X148511905Y-98917666D02*
X148488095Y-98989095D01*
X148488095Y-98989095D02*
X148202381Y-99274809D01*
X148202381Y-99274809D02*
X148511905Y-99274809D01*
X148977190Y-103583333D02*
X149001000Y-103607142D01*
X149001000Y-103607142D02*
X149024809Y-103678571D01*
X149024809Y-103678571D02*
X149024809Y-103726190D01*
X149024809Y-103726190D02*
X149001000Y-103797618D01*
X149001000Y-103797618D02*
X148953380Y-103845237D01*
X148953380Y-103845237D02*
X148905761Y-103869047D01*
X148905761Y-103869047D02*
X148810523Y-103892856D01*
X148810523Y-103892856D02*
X148739095Y-103892856D01*
X148739095Y-103892856D02*
X148643857Y-103869047D01*
X148643857Y-103869047D02*
X148596238Y-103845237D01*
X148596238Y-103845237D02*
X148548619Y-103797618D01*
X148548619Y-103797618D02*
X148524809Y-103726190D01*
X148524809Y-103726190D02*
X148524809Y-103678571D01*
X148524809Y-103678571D02*
X148548619Y-103607142D01*
X148548619Y-103607142D02*
X148572428Y-103583333D01*
X149024809Y-103107142D02*
X149024809Y-103392856D01*
X149024809Y-103249999D02*
X148524809Y-103249999D01*
X148524809Y-103249999D02*
X148596238Y-103297618D01*
X148596238Y-103297618D02*
X148643857Y-103345237D01*
X148643857Y-103345237D02*
X148667666Y-103392856D01*
D11*
X151199580Y-107599166D02*
X151247200Y-107646785D01*
X151247200Y-107646785D02*
X151294819Y-107789642D01*
X151294819Y-107789642D02*
X151294819Y-107884880D01*
X151294819Y-107884880D02*
X151247200Y-108027737D01*
X151247200Y-108027737D02*
X151151961Y-108122975D01*
X151151961Y-108122975D02*
X151056723Y-108170594D01*
X151056723Y-108170594D02*
X150866247Y-108218213D01*
X150866247Y-108218213D02*
X150723390Y-108218213D01*
X150723390Y-108218213D02*
X150532914Y-108170594D01*
X150532914Y-108170594D02*
X150437676Y-108122975D01*
X150437676Y-108122975D02*
X150342438Y-108027737D01*
X150342438Y-108027737D02*
X150294819Y-107884880D01*
X150294819Y-107884880D02*
X150294819Y-107789642D01*
X150294819Y-107789642D02*
X150342438Y-107646785D01*
X150342438Y-107646785D02*
X150390057Y-107599166D01*
X150294819Y-106742023D02*
X150294819Y-106932499D01*
X150294819Y-106932499D02*
X150342438Y-107027737D01*
X150342438Y-107027737D02*
X150390057Y-107075356D01*
X150390057Y-107075356D02*
X150532914Y-107170594D01*
X150532914Y-107170594D02*
X150723390Y-107218213D01*
X150723390Y-107218213D02*
X151104342Y-107218213D01*
X151104342Y-107218213D02*
X151199580Y-107170594D01*
X151199580Y-107170594D02*
X151247200Y-107122975D01*
X151247200Y-107122975D02*
X151294819Y-107027737D01*
X151294819Y-107027737D02*
X151294819Y-106837261D01*
X151294819Y-106837261D02*
X151247200Y-106742023D01*
X151247200Y-106742023D02*
X151199580Y-106694404D01*
X151199580Y-106694404D02*
X151104342Y-106646785D01*
X151104342Y-106646785D02*
X150866247Y-106646785D01*
X150866247Y-106646785D02*
X150771009Y-106694404D01*
X150771009Y-106694404D02*
X150723390Y-106742023D01*
X150723390Y-106742023D02*
X150675771Y-106837261D01*
X150675771Y-106837261D02*
X150675771Y-107027737D01*
X150675771Y-107027737D02*
X150723390Y-107122975D01*
X150723390Y-107122975D02*
X150771009Y-107170594D01*
X150771009Y-107170594D02*
X150866247Y-107218213D01*
D10*
X157359809Y-99988094D02*
X156859809Y-99988094D01*
X157312190Y-99464285D02*
X157336000Y-99488094D01*
X157336000Y-99488094D02*
X157359809Y-99559523D01*
X157359809Y-99559523D02*
X157359809Y-99607142D01*
X157359809Y-99607142D02*
X157336000Y-99678570D01*
X157336000Y-99678570D02*
X157288380Y-99726189D01*
X157288380Y-99726189D02*
X157240761Y-99749999D01*
X157240761Y-99749999D02*
X157145523Y-99773808D01*
X157145523Y-99773808D02*
X157074095Y-99773808D01*
X157074095Y-99773808D02*
X156978857Y-99749999D01*
X156978857Y-99749999D02*
X156931238Y-99726189D01*
X156931238Y-99726189D02*
X156883619Y-99678570D01*
X156883619Y-99678570D02*
X156859809Y-99607142D01*
X156859809Y-99607142D02*
X156859809Y-99559523D01*
X156859809Y-99559523D02*
X156883619Y-99488094D01*
X156883619Y-99488094D02*
X156907428Y-99464285D01*
X157359809Y-98988094D02*
X157359809Y-99273808D01*
X157359809Y-99130951D02*
X156859809Y-99130951D01*
X156859809Y-99130951D02*
X156931238Y-99178570D01*
X156931238Y-99178570D02*
X156978857Y-99226189D01*
X156978857Y-99226189D02*
X157002666Y-99273808D01*
X147716666Y-98677190D02*
X147692857Y-98701000D01*
X147692857Y-98701000D02*
X147621428Y-98724809D01*
X147621428Y-98724809D02*
X147573809Y-98724809D01*
X147573809Y-98724809D02*
X147502381Y-98701000D01*
X147502381Y-98701000D02*
X147454762Y-98653380D01*
X147454762Y-98653380D02*
X147430952Y-98605761D01*
X147430952Y-98605761D02*
X147407143Y-98510523D01*
X147407143Y-98510523D02*
X147407143Y-98439095D01*
X147407143Y-98439095D02*
X147430952Y-98343857D01*
X147430952Y-98343857D02*
X147454762Y-98296238D01*
X147454762Y-98296238D02*
X147502381Y-98248619D01*
X147502381Y-98248619D02*
X147573809Y-98224809D01*
X147573809Y-98224809D02*
X147621428Y-98224809D01*
X147621428Y-98224809D02*
X147692857Y-98248619D01*
X147692857Y-98248619D02*
X147716666Y-98272428D01*
X147907143Y-98272428D02*
X147930952Y-98248619D01*
X147930952Y-98248619D02*
X147978571Y-98224809D01*
X147978571Y-98224809D02*
X148097619Y-98224809D01*
X148097619Y-98224809D02*
X148145238Y-98248619D01*
X148145238Y-98248619D02*
X148169047Y-98272428D01*
X148169047Y-98272428D02*
X148192857Y-98320047D01*
X148192857Y-98320047D02*
X148192857Y-98367666D01*
X148192857Y-98367666D02*
X148169047Y-98439095D01*
X148169047Y-98439095D02*
X147883333Y-98724809D01*
X147883333Y-98724809D02*
X148192857Y-98724809D01*
D12*
X154453365Y-108211666D02*
X154513842Y-108272142D01*
X154513842Y-108272142D02*
X154574318Y-108453571D01*
X154574318Y-108453571D02*
X154574318Y-108574523D01*
X154574318Y-108574523D02*
X154513842Y-108755952D01*
X154513842Y-108755952D02*
X154392889Y-108876904D01*
X154392889Y-108876904D02*
X154271937Y-108937381D01*
X154271937Y-108937381D02*
X154030032Y-108997857D01*
X154030032Y-108997857D02*
X153848603Y-108997857D01*
X153848603Y-108997857D02*
X153606699Y-108937381D01*
X153606699Y-108937381D02*
X153485746Y-108876904D01*
X153485746Y-108876904D02*
X153364794Y-108755952D01*
X153364794Y-108755952D02*
X153304318Y-108574523D01*
X153304318Y-108574523D02*
X153304318Y-108453571D01*
X153304318Y-108453571D02*
X153364794Y-108272142D01*
X153364794Y-108272142D02*
X153425270Y-108211666D01*
X153304318Y-107062619D02*
X153304318Y-107667381D01*
X153304318Y-107667381D02*
X153909080Y-107727857D01*
X153909080Y-107727857D02*
X153848603Y-107667381D01*
X153848603Y-107667381D02*
X153788127Y-107546428D01*
X153788127Y-107546428D02*
X153788127Y-107244047D01*
X153788127Y-107244047D02*
X153848603Y-107123095D01*
X153848603Y-107123095D02*
X153909080Y-107062619D01*
X153909080Y-107062619D02*
X154030032Y-107002142D01*
X154030032Y-107002142D02*
X154332413Y-107002142D01*
X154332413Y-107002142D02*
X154453365Y-107062619D01*
X154453365Y-107062619D02*
X154513842Y-107123095D01*
X154513842Y-107123095D02*
X154574318Y-107244047D01*
X154574318Y-107244047D02*
X154574318Y-107546428D01*
X154574318Y-107546428D02*
X154513842Y-107667381D01*
X154513842Y-107667381D02*
X154453365Y-107727857D01*
D10*
X156224809Y-93283333D02*
X155986714Y-93449999D01*
X156224809Y-93569047D02*
X155724809Y-93569047D01*
X155724809Y-93569047D02*
X155724809Y-93378571D01*
X155724809Y-93378571D02*
X155748619Y-93330952D01*
X155748619Y-93330952D02*
X155772428Y-93307142D01*
X155772428Y-93307142D02*
X155820047Y-93283333D01*
X155820047Y-93283333D02*
X155891476Y-93283333D01*
X155891476Y-93283333D02*
X155939095Y-93307142D01*
X155939095Y-93307142D02*
X155962904Y-93330952D01*
X155962904Y-93330952D02*
X155986714Y-93378571D01*
X155986714Y-93378571D02*
X155986714Y-93569047D01*
X156224809Y-92807142D02*
X156224809Y-93092856D01*
X156224809Y-92949999D02*
X155724809Y-92949999D01*
X155724809Y-92949999D02*
X155796238Y-92997618D01*
X155796238Y-92997618D02*
X155843857Y-93045237D01*
X155843857Y-93045237D02*
X155867666Y-93092856D01*
D12*
X152824318Y-96989762D02*
X151554318Y-96989762D01*
X152703365Y-95659285D02*
X152763842Y-95719761D01*
X152763842Y-95719761D02*
X152824318Y-95901190D01*
X152824318Y-95901190D02*
X152824318Y-96022142D01*
X152824318Y-96022142D02*
X152763842Y-96203571D01*
X152763842Y-96203571D02*
X152642889Y-96324523D01*
X152642889Y-96324523D02*
X152521937Y-96385000D01*
X152521937Y-96385000D02*
X152280032Y-96445476D01*
X152280032Y-96445476D02*
X152098603Y-96445476D01*
X152098603Y-96445476D02*
X151856699Y-96385000D01*
X151856699Y-96385000D02*
X151735746Y-96324523D01*
X151735746Y-96324523D02*
X151614794Y-96203571D01*
X151614794Y-96203571D02*
X151554318Y-96022142D01*
X151554318Y-96022142D02*
X151554318Y-95901190D01*
X151554318Y-95901190D02*
X151614794Y-95719761D01*
X151614794Y-95719761D02*
X151675270Y-95659285D01*
X151554318Y-95235952D02*
X151554318Y-94449761D01*
X151554318Y-94449761D02*
X152038127Y-94873095D01*
X152038127Y-94873095D02*
X152038127Y-94691666D01*
X152038127Y-94691666D02*
X152098603Y-94570714D01*
X152098603Y-94570714D02*
X152159080Y-94510238D01*
X152159080Y-94510238D02*
X152280032Y-94449761D01*
X152280032Y-94449761D02*
X152582413Y-94449761D01*
X152582413Y-94449761D02*
X152703365Y-94510238D01*
X152703365Y-94510238D02*
X152763842Y-94570714D01*
X152763842Y-94570714D02*
X152824318Y-94691666D01*
X152824318Y-94691666D02*
X152824318Y-95054523D01*
X152824318Y-95054523D02*
X152763842Y-95175476D01*
X152763842Y-95175476D02*
X152703365Y-95235952D01*
D10*
X159996666Y-95677190D02*
X159972857Y-95701000D01*
X159972857Y-95701000D02*
X159901428Y-95724809D01*
X159901428Y-95724809D02*
X159853809Y-95724809D01*
X159853809Y-95724809D02*
X159782381Y-95701000D01*
X159782381Y-95701000D02*
X159734762Y-95653380D01*
X159734762Y-95653380D02*
X159710952Y-95605761D01*
X159710952Y-95605761D02*
X159687143Y-95510523D01*
X159687143Y-95510523D02*
X159687143Y-95439095D01*
X159687143Y-95439095D02*
X159710952Y-95343857D01*
X159710952Y-95343857D02*
X159734762Y-95296238D01*
X159734762Y-95296238D02*
X159782381Y-95248619D01*
X159782381Y-95248619D02*
X159853809Y-95224809D01*
X159853809Y-95224809D02*
X159901428Y-95224809D01*
X159901428Y-95224809D02*
X159972857Y-95248619D01*
X159972857Y-95248619D02*
X159996666Y-95272428D01*
X160163333Y-95224809D02*
X160472857Y-95224809D01*
X160472857Y-95224809D02*
X160306190Y-95415285D01*
X160306190Y-95415285D02*
X160377619Y-95415285D01*
X160377619Y-95415285D02*
X160425238Y-95439095D01*
X160425238Y-95439095D02*
X160449047Y-95462904D01*
X160449047Y-95462904D02*
X160472857Y-95510523D01*
X160472857Y-95510523D02*
X160472857Y-95629571D01*
X160472857Y-95629571D02*
X160449047Y-95677190D01*
X160449047Y-95677190D02*
X160425238Y-95701000D01*
X160425238Y-95701000D02*
X160377619Y-95724809D01*
X160377619Y-95724809D02*
X160234762Y-95724809D01*
X160234762Y-95724809D02*
X160187143Y-95701000D01*
X160187143Y-95701000D02*
X160163333Y-95677190D01*
D12*
X155138857Y-105711461D02*
X155743619Y-105711461D01*
X155017905Y-106074318D02*
X155441238Y-104804318D01*
X155441238Y-104804318D02*
X155864572Y-106074318D01*
X157013619Y-105953365D02*
X156953143Y-106013842D01*
X156953143Y-106013842D02*
X156771714Y-106074318D01*
X156771714Y-106074318D02*
X156650762Y-106074318D01*
X156650762Y-106074318D02*
X156469333Y-106013842D01*
X156469333Y-106013842D02*
X156348381Y-105892889D01*
X156348381Y-105892889D02*
X156287904Y-105771937D01*
X156287904Y-105771937D02*
X156227428Y-105530032D01*
X156227428Y-105530032D02*
X156227428Y-105348603D01*
X156227428Y-105348603D02*
X156287904Y-105106699D01*
X156287904Y-105106699D02*
X156348381Y-104985746D01*
X156348381Y-104985746D02*
X156469333Y-104864794D01*
X156469333Y-104864794D02*
X156650762Y-104804318D01*
X156650762Y-104804318D02*
X156771714Y-104804318D01*
X156771714Y-104804318D02*
X156953143Y-104864794D01*
X156953143Y-104864794D02*
X157013619Y-104925270D01*
X158223143Y-106074318D02*
X157497428Y-106074318D01*
X157860285Y-106074318D02*
X157860285Y-104804318D01*
X157860285Y-104804318D02*
X157739333Y-104985746D01*
X157739333Y-104985746D02*
X157618381Y-105106699D01*
X157618381Y-105106699D02*
X157497428Y-105167175D01*
%TO.C,R2*%
D13*
X160000000Y-104800000D02*
X160000000Y-104200000D01*
%TO.C,LED1*%
D14*
D15*
X154575000Y-98300000D02*
X154574999Y-98300000D01*
X154574999Y-98300000D01*
X154574999Y-98300000D01*
X154574999Y-98300000D01*
X154574999Y-98300000D01*
X154574999Y-98300000D01*
X154574999Y-98300000D01*
X154574999Y-98299999D01*
X154574999Y-98299999D01*
X154574999Y-98299999D01*
X154574999Y-98299999D01*
X154574999Y-98299999D01*
X154575000Y-98299999D01*
X154575000Y-98299999D01*
X154575000Y-98299999D01*
X154575000Y-98299999D01*
X154575000Y-98299999D01*
X154575000Y-98299999D01*
X154575000Y-98299999D01*
X154575000Y-98299999D01*
X154575000Y-98299999D01*
X154575000Y-98299999D01*
X154575000Y-98299999D01*
X154575000Y-98299999D01*
X154575001Y-98299999D01*
X154575001Y-98299999D01*
X154575001Y-98299999D01*
X154575001Y-98299999D01*
X154575001Y-98299999D01*
X154575001Y-98299999D01*
X154575001Y-98300000D01*
X154575001Y-98300000D01*
X154575001Y-98300000D01*
X154575001Y-98300000D01*
X154575001Y-98300000D01*
X154575001Y-98300000D01*
X154575001Y-98300000D01*
X154575000Y-98300000D01*
X154575000Y-98300000D02*
X154575001Y-98300000D01*
X154575001Y-98300000D01*
X154575001Y-98300000D01*
X154575001Y-98300000D01*
X154575001Y-98300000D01*
X154575001Y-98300000D01*
X154575001Y-98300001D01*
X154575001Y-98300001D01*
X154575001Y-98300001D01*
X154575001Y-98300001D01*
X154575001Y-98300001D01*
X154575001Y-98300001D01*
X154575001Y-98300001D01*
X154575000Y-98300001D01*
X154575000Y-98300001D01*
X154575000Y-98300001D01*
X154575000Y-98300001D01*
X154575000Y-98300001D01*
X154575000Y-98300001D01*
X154575000Y-98300001D01*
X154575000Y-98300001D01*
X154575000Y-98300001D01*
X154575000Y-98300001D01*
X154575000Y-98300001D01*
X154575000Y-98300001D01*
X154574999Y-98300001D01*
X154574999Y-98300001D01*
X154574999Y-98300001D01*
X154574999Y-98300001D01*
X154574999Y-98300001D01*
X154574999Y-98300001D01*
X154574999Y-98300000D01*
X154574999Y-98300000D01*
X154574999Y-98300000D01*
X154574999Y-98300000D01*
X154574999Y-98300000D01*
X154574999Y-98300000D01*
X154575000Y-98300000D01*
D14*
D15*
X154575000Y-98400000D02*
X154574999Y-98400000D01*
X154574999Y-98400000D01*
X154574999Y-98400000D01*
X154574999Y-98400000D01*
X154574999Y-98400000D01*
X154574999Y-98400000D01*
X154574999Y-98400000D01*
X154574999Y-98399999D01*
X154574999Y-98399999D01*
X154574999Y-98399999D01*
X154574999Y-98399999D01*
X154574999Y-98399999D01*
X154575000Y-98399999D01*
X154575000Y-98399999D01*
X154575000Y-98399999D01*
X154575000Y-98399999D01*
X154575000Y-98399999D01*
X154575000Y-98399999D01*
X154575000Y-98399999D01*
X154575000Y-98399999D01*
X154575000Y-98399999D01*
X154575000Y-98399999D01*
X154575000Y-98399999D01*
X154575000Y-98399999D01*
X154575001Y-98399999D01*
X154575001Y-98399999D01*
X154575001Y-98399999D01*
X154575001Y-98399999D01*
X154575001Y-98399999D01*
X154575001Y-98399999D01*
X154575001Y-98400000D01*
X154575001Y-98400000D01*
X154575001Y-98400000D01*
X154575001Y-98400000D01*
X154575001Y-98400000D01*
X154575001Y-98400000D01*
X154575001Y-98400000D01*
X154575000Y-98400000D01*
X154575000Y-98400000D02*
X154575001Y-98400000D01*
X154575001Y-98400000D01*
X154575001Y-98400000D01*
X154575001Y-98400000D01*
X154575001Y-98400000D01*
X154575001Y-98400000D01*
X154575001Y-98400001D01*
X154575001Y-98400001D01*
X154575001Y-98400001D01*
X154575001Y-98400001D01*
X154575001Y-98400001D01*
X154575001Y-98400001D01*
X154575001Y-98400001D01*
X154575000Y-98400001D01*
X154575000Y-98400001D01*
X154575000Y-98400001D01*
X154575000Y-98400001D01*
X154575000Y-98400001D01*
X154575000Y-98400001D01*
X154575000Y-98400001D01*
X154575000Y-98400001D01*
X154575000Y-98400001D01*
X154575000Y-98400001D01*
X154575000Y-98400001D01*
X154575000Y-98400001D01*
X154574999Y-98400001D01*
X154574999Y-98400001D01*
X154574999Y-98400001D01*
X154574999Y-98400001D01*
X154574999Y-98400001D01*
X154574999Y-98400001D01*
X154574999Y-98400000D01*
X154574999Y-98400000D01*
X154574999Y-98400000D01*
X154574999Y-98400000D01*
X154574999Y-98400000D01*
X154574999Y-98400000D01*
X154575000Y-98400000D01*
D14*
X154575000Y-98300000D02*
G75*
G02*
X154575000Y-98400000I0J-50000D01*
G01*
X154575000Y-98400000D02*
G75*
G02*
X154575000Y-98300000I0J50000D01*
G01*
%TO.C,IC2*%
D13*
X147925000Y-99570000D02*
X148075000Y-99570000D01*
X147925000Y-102430000D02*
X147925000Y-99570000D01*
X148075000Y-99570000D02*
X148075000Y-102430000D01*
X148075000Y-102430000D02*
X147925000Y-102430000D01*
X149675000Y-102525000D02*
X148425000Y-102525000D01*
%TO.C,C1*%
X148800000Y-104900000D02*
X148800000Y-104100000D01*
D15*
X150300000Y-104600000D02*
X150299999Y-104600000D01*
X150299999Y-104600000D01*
X150299999Y-104600000D01*
X150299999Y-104600000D01*
X150299999Y-104600000D01*
X150299999Y-104600000D01*
X150299999Y-104600000D01*
X150299999Y-104599999D01*
X150299999Y-104599999D01*
X150299999Y-104599999D01*
X150299999Y-104599999D01*
X150299999Y-104599999D01*
X150300000Y-104599999D01*
X150300000Y-104599999D01*
X150300000Y-104599999D01*
X150300000Y-104599999D01*
X150300000Y-104599999D01*
X150300000Y-104599999D01*
X150300000Y-104599999D01*
X150300000Y-104599999D01*
X150300000Y-104599999D01*
X150300000Y-104599999D01*
X150300000Y-104599999D01*
X150300000Y-104599999D01*
X150300001Y-104599999D01*
X150300001Y-104599999D01*
X150300001Y-104599999D01*
X150300001Y-104599999D01*
X150300001Y-104599999D01*
X150300001Y-104599999D01*
X150300001Y-104600000D01*
X150300001Y-104600000D01*
X150300001Y-104600000D01*
X150300001Y-104600000D01*
X150300001Y-104600000D01*
X150300001Y-104600000D01*
X150300001Y-104600000D01*
X150300000Y-104600000D01*
X150300000Y-104600000D02*
X150300001Y-104600000D01*
X150300001Y-104600000D01*
X150300001Y-104600000D01*
X150300001Y-104600000D01*
X150300001Y-104600000D01*
X150300001Y-104600000D01*
X150300001Y-104600001D01*
X150300001Y-104600001D01*
X150300001Y-104600001D01*
X150300001Y-104600001D01*
X150300001Y-104600001D01*
X150300001Y-104600001D01*
X150300001Y-104600001D01*
X150300000Y-104600001D01*
X150300000Y-104600001D01*
X150300000Y-104600001D01*
X150300000Y-104600001D01*
X150300000Y-104600001D01*
X150300000Y-104600001D01*
X150300000Y-104600001D01*
X150300000Y-104600001D01*
X150300000Y-104600001D01*
X150300000Y-104600001D01*
X150300000Y-104600001D01*
X150300000Y-104600001D01*
X150299999Y-104600001D01*
X150299999Y-104600001D01*
X150299999Y-104600001D01*
X150299999Y-104600001D01*
X150299999Y-104600001D01*
X150299999Y-104600001D01*
X150299999Y-104600000D01*
X150299999Y-104600000D01*
X150299999Y-104600000D01*
X150299999Y-104600000D01*
X150299999Y-104600000D01*
X150299999Y-104600000D01*
X150300000Y-104600000D01*
D13*
D15*
X150300000Y-104600000D02*
X150299999Y-104600000D01*
X150299999Y-104600000D01*
X150299999Y-104600000D01*
X150299999Y-104600000D01*
X150299999Y-104600000D01*
X150299999Y-104600000D01*
X150299999Y-104600000D01*
X150299999Y-104599999D01*
X150299999Y-104599999D01*
X150299999Y-104599999D01*
X150299999Y-104599999D01*
X150299999Y-104599999D01*
X150300000Y-104599999D01*
X150300000Y-104599999D01*
X150300000Y-104599999D01*
X150300000Y-104599999D01*
X150300000Y-104599999D01*
X150300000Y-104599999D01*
X150300000Y-104599999D01*
X150300000Y-104599999D01*
X150300000Y-104599999D01*
X150300000Y-104599999D01*
X150300000Y-104599999D01*
X150300000Y-104599999D01*
X150300001Y-104599999D01*
X150300001Y-104599999D01*
X150300001Y-104599999D01*
X150300001Y-104599999D01*
X150300001Y-104599999D01*
X150300001Y-104599999D01*
X150300001Y-104600000D01*
X150300001Y-104600000D01*
X150300001Y-104600000D01*
X150300001Y-104600000D01*
X150300001Y-104600000D01*
X150300001Y-104600000D01*
X150300001Y-104600000D01*
X150300000Y-104600000D01*
X150300000Y-104600000D02*
X150300001Y-104600000D01*
X150300001Y-104600000D01*
X150300001Y-104600000D01*
X150300001Y-104600000D01*
X150300001Y-104600000D01*
X150300001Y-104600000D01*
X150300001Y-104600001D01*
X150300001Y-104600001D01*
X150300001Y-104600001D01*
X150300001Y-104600001D01*
X150300001Y-104600001D01*
X150300001Y-104600001D01*
X150300001Y-104600001D01*
X150300000Y-104600001D01*
X150300000Y-104600001D01*
X150300000Y-104600001D01*
X150300000Y-104600001D01*
X150300000Y-104600001D01*
X150300000Y-104600001D01*
X150300000Y-104600001D01*
X150300000Y-104600001D01*
X150300000Y-104600001D01*
X150300000Y-104600001D01*
X150300000Y-104600001D01*
X150300000Y-104600001D01*
X150299999Y-104600001D01*
X150299999Y-104600001D01*
X150299999Y-104600001D01*
X150299999Y-104600001D01*
X150299999Y-104600001D01*
X150299999Y-104600001D01*
X150299999Y-104600000D01*
X150299999Y-104600000D01*
X150299999Y-104600000D01*
X150299999Y-104600000D01*
X150299999Y-104600000D01*
X150299999Y-104600000D01*
X150300000Y-104600000D01*
D13*
X150300000Y-104400000D02*
G75*
G02*
X150300000Y-104600000I0J-100000D01*
G01*
X150300000Y-104600000D02*
G75*
G02*
X150300000Y-104400000I0J100000D01*
G01*
%TO.C,C6*%
D16*
X151640000Y-107548335D02*
X151640000Y-107316665D01*
X152360000Y-107548335D02*
X152360000Y-107316665D01*
%TO.C,IC1*%
D13*
X157550000Y-97900000D02*
X162450000Y-97900000D01*
X157550000Y-101100000D02*
X157550000Y-97900000D01*
X162450000Y-97900000D02*
X162450000Y-101100000D01*
X162450000Y-101100000D02*
X157550000Y-101100000D01*
X162580000Y-96025000D02*
X162580000Y-97550000D01*
%TO.C,C2*%
D15*
X146300000Y-97400000D02*
X146299999Y-97400000D01*
X146299999Y-97400000D01*
X146299999Y-97400000D01*
X146299999Y-97400000D01*
X146299999Y-97400000D01*
X146299999Y-97400000D01*
X146299999Y-97400000D01*
X146299999Y-97399999D01*
X146299999Y-97399999D01*
X146299999Y-97399999D01*
X146299999Y-97399999D01*
X146299999Y-97399999D01*
X146300000Y-97399999D01*
X146300000Y-97399999D01*
X146300000Y-97399999D01*
X146300000Y-97399999D01*
X146300000Y-97399999D01*
X146300000Y-97399999D01*
X146300000Y-97399999D01*
X146300000Y-97399999D01*
X146300000Y-97399999D01*
X146300000Y-97399999D01*
X146300000Y-97399999D01*
X146300000Y-97399999D01*
X146300001Y-97399999D01*
X146300001Y-97399999D01*
X146300001Y-97399999D01*
X146300001Y-97399999D01*
X146300001Y-97399999D01*
X146300001Y-97399999D01*
X146300001Y-97400000D01*
X146300001Y-97400000D01*
X146300001Y-97400000D01*
X146300001Y-97400000D01*
X146300001Y-97400000D01*
X146300001Y-97400000D01*
X146300001Y-97400000D01*
X146300000Y-97400000D01*
X146300000Y-97400000D02*
X146300001Y-97400000D01*
X146300001Y-97400000D01*
X146300001Y-97400000D01*
X146300001Y-97400000D01*
X146300001Y-97400000D01*
X146300001Y-97400000D01*
X146300001Y-97400001D01*
X146300001Y-97400001D01*
X146300001Y-97400001D01*
X146300001Y-97400001D01*
X146300001Y-97400001D01*
X146300001Y-97400001D01*
X146300001Y-97400001D01*
X146300000Y-97400001D01*
X146300000Y-97400001D01*
X146300000Y-97400001D01*
X146300000Y-97400001D01*
X146300000Y-97400001D01*
X146300000Y-97400001D01*
X146300000Y-97400001D01*
X146300000Y-97400001D01*
X146300000Y-97400001D01*
X146300000Y-97400001D01*
X146300000Y-97400001D01*
X146300000Y-97400001D01*
X146299999Y-97400001D01*
X146299999Y-97400001D01*
X146299999Y-97400001D01*
X146299999Y-97400001D01*
X146299999Y-97400001D01*
X146299999Y-97400001D01*
X146299999Y-97400000D01*
X146299999Y-97400000D01*
X146299999Y-97400000D01*
X146299999Y-97400000D01*
X146299999Y-97400000D01*
X146299999Y-97400000D01*
X146300000Y-97400000D01*
D13*
D15*
X146300000Y-97600000D02*
X146299999Y-97600000D01*
X146299999Y-97600000D01*
X146299999Y-97600000D01*
X146299999Y-97600000D01*
X146299999Y-97600000D01*
X146299999Y-97600000D01*
X146299999Y-97600000D01*
X146299999Y-97599999D01*
X146299999Y-97599999D01*
X146299999Y-97599999D01*
X146299999Y-97599999D01*
X146299999Y-97599999D01*
X146300000Y-97599999D01*
X146300000Y-97599999D01*
X146300000Y-97599999D01*
X146300000Y-97599999D01*
X146300000Y-97599999D01*
X146300000Y-97599999D01*
X146300000Y-97599999D01*
X146300000Y-97599999D01*
X146300000Y-97599999D01*
X146300000Y-97599999D01*
X146300000Y-97599999D01*
X146300000Y-97599999D01*
X146300001Y-97599999D01*
X146300001Y-97599999D01*
X146300001Y-97599999D01*
X146300001Y-97599999D01*
X146300001Y-97599999D01*
X146300001Y-97599999D01*
X146300001Y-97600000D01*
X146300001Y-97600000D01*
X146300001Y-97600000D01*
X146300001Y-97600000D01*
X146300001Y-97600000D01*
X146300001Y-97600000D01*
X146300001Y-97600000D01*
X146300000Y-97600000D01*
X146300000Y-97600000D02*
X146300001Y-97600000D01*
X146300001Y-97600000D01*
X146300001Y-97600000D01*
X146300001Y-97600000D01*
X146300001Y-97600000D01*
X146300001Y-97600000D01*
X146300001Y-97600001D01*
X146300001Y-97600001D01*
X146300001Y-97600001D01*
X146300001Y-97600001D01*
X146300001Y-97600001D01*
X146300001Y-97600001D01*
X146300001Y-97600001D01*
X146300000Y-97600001D01*
X146300000Y-97600001D01*
X146300000Y-97600001D01*
X146300000Y-97600001D01*
X146300000Y-97600001D01*
X146300000Y-97600001D01*
X146300000Y-97600001D01*
X146300000Y-97600001D01*
X146300000Y-97600001D01*
X146300000Y-97600001D01*
X146300000Y-97600001D01*
X146300000Y-97600001D01*
X146299999Y-97600001D01*
X146299999Y-97600001D01*
X146299999Y-97600001D01*
X146299999Y-97600001D01*
X146299999Y-97600001D01*
X146299999Y-97600001D01*
X146299999Y-97600000D01*
X146299999Y-97600000D01*
X146299999Y-97600000D01*
X146299999Y-97600000D01*
X146299999Y-97600000D01*
X146299999Y-97600000D01*
X146300000Y-97600000D01*
D13*
X147800000Y-97100000D02*
X147800000Y-97900000D01*
X146300000Y-97400000D02*
G75*
G02*
X146300000Y-97600000I0J-100000D01*
G01*
X146300000Y-97600000D02*
G75*
G02*
X146300000Y-97400000I0J100000D01*
G01*
%TO.C,R1*%
X157300000Y-93200000D02*
X156700000Y-93200000D01*
%TO.C,IC3*%
X151200000Y-95350000D02*
X151200000Y-96150000D01*
D14*
D15*
X153000000Y-94050000D02*
X152999999Y-94050000D01*
X152999999Y-94050000D01*
X152999999Y-94050000D01*
X152999999Y-94050000D01*
X152999999Y-94050000D01*
X152999999Y-94050000D01*
X152999999Y-94050000D01*
X152999999Y-94049999D01*
X152999999Y-94049999D01*
X152999999Y-94049999D01*
X152999999Y-94049999D01*
X152999999Y-94049999D01*
X153000000Y-94049999D01*
X153000000Y-94049999D01*
X153000000Y-94049999D01*
X153000000Y-94049999D01*
X153000000Y-94049999D01*
X153000000Y-94049999D01*
X153000000Y-94049999D01*
X153000000Y-94049999D01*
X153000000Y-94049999D01*
X153000000Y-94049999D01*
X153000000Y-94049999D01*
X153000000Y-94049999D01*
X153000001Y-94049999D01*
X153000001Y-94049999D01*
X153000001Y-94049999D01*
X153000001Y-94049999D01*
X153000001Y-94049999D01*
X153000001Y-94049999D01*
X153000001Y-94050000D01*
X153000001Y-94050000D01*
X153000001Y-94050000D01*
X153000001Y-94050000D01*
X153000001Y-94050000D01*
X153000001Y-94050000D01*
X153000001Y-94050000D01*
X153000000Y-94050000D01*
X153000000Y-94050000D02*
X153000001Y-94050000D01*
X153000001Y-94050000D01*
X153000001Y-94050000D01*
X153000001Y-94050000D01*
X153000001Y-94050000D01*
X153000001Y-94050000D01*
X153000001Y-94050001D01*
X153000001Y-94050001D01*
X153000001Y-94050001D01*
X153000001Y-94050001D01*
X153000001Y-94050001D01*
X153000001Y-94050001D01*
X153000001Y-94050001D01*
X153000000Y-94050001D01*
X153000000Y-94050001D01*
X153000000Y-94050001D01*
X153000000Y-94050001D01*
X153000000Y-94050001D01*
X153000000Y-94050001D01*
X153000000Y-94050001D01*
X153000000Y-94050001D01*
X153000000Y-94050001D01*
X153000000Y-94050001D01*
X153000000Y-94050001D01*
X153000000Y-94050001D01*
X152999999Y-94050001D01*
X152999999Y-94050001D01*
X152999999Y-94050001D01*
X152999999Y-94050001D01*
X152999999Y-94050001D01*
X152999999Y-94050001D01*
X152999999Y-94050000D01*
X152999999Y-94050000D01*
X152999999Y-94050000D01*
X152999999Y-94050000D01*
X152999999Y-94050000D01*
X152999999Y-94050000D01*
X153000000Y-94050000D01*
D14*
D15*
X153000000Y-94150000D02*
X152999999Y-94150000D01*
X152999999Y-94150000D01*
X152999999Y-94150000D01*
X152999999Y-94150000D01*
X152999999Y-94150000D01*
X152999999Y-94150000D01*
X152999999Y-94150000D01*
X152999999Y-94149999D01*
X152999999Y-94149999D01*
X152999999Y-94149999D01*
X152999999Y-94149999D01*
X152999999Y-94149999D01*
X153000000Y-94149999D01*
X153000000Y-94149999D01*
X153000000Y-94149999D01*
X153000000Y-94149999D01*
X153000000Y-94149999D01*
X153000000Y-94149999D01*
X153000000Y-94149999D01*
X153000000Y-94149999D01*
X153000000Y-94149999D01*
X153000000Y-94149999D01*
X153000000Y-94149999D01*
X153000000Y-94149999D01*
X153000001Y-94149999D01*
X153000001Y-94149999D01*
X153000001Y-94149999D01*
X153000001Y-94149999D01*
X153000001Y-94149999D01*
X153000001Y-94149999D01*
X153000001Y-94150000D01*
X153000001Y-94150000D01*
X153000001Y-94150000D01*
X153000001Y-94150000D01*
X153000001Y-94150000D01*
X153000001Y-94150000D01*
X153000001Y-94150000D01*
X153000000Y-94150000D01*
X153000000Y-94150000D02*
X153000001Y-94150000D01*
X153000001Y-94150000D01*
X153000001Y-94150000D01*
X153000001Y-94150000D01*
X153000001Y-94150000D01*
X153000001Y-94150000D01*
X153000001Y-94150001D01*
X153000001Y-94150001D01*
X153000001Y-94150001D01*
X153000001Y-94150001D01*
X153000001Y-94150001D01*
X153000001Y-94150001D01*
X153000001Y-94150001D01*
X153000000Y-94150001D01*
X153000000Y-94150001D01*
X153000000Y-94150001D01*
X153000000Y-94150001D01*
X153000000Y-94150001D01*
X153000000Y-94150001D01*
X153000000Y-94150001D01*
X153000000Y-94150001D01*
X153000000Y-94150001D01*
X153000000Y-94150001D01*
X153000000Y-94150001D01*
X153000000Y-94150001D01*
X152999999Y-94150001D01*
X152999999Y-94150001D01*
X152999999Y-94150001D01*
X152999999Y-94150001D01*
X152999999Y-94150001D01*
X152999999Y-94150001D01*
X152999999Y-94150000D01*
X152999999Y-94150000D01*
X152999999Y-94150000D01*
X152999999Y-94150000D01*
X152999999Y-94150000D01*
X152999999Y-94150000D01*
X153000000Y-94150000D01*
D13*
X153300000Y-95350000D02*
X153300000Y-96150000D01*
D14*
X153000000Y-94050000D02*
G75*
G02*
X153000000Y-94150000I0J-50000D01*
G01*
X153000000Y-94150000D02*
G75*
G02*
X153000000Y-94050000I0J50000D01*
G01*
%TO.C,AC1*%
D13*
D15*
X155000000Y-104000000D02*
X154999999Y-104000000D01*
X154999999Y-104000000D01*
X154999999Y-104000000D01*
X154999999Y-104000000D01*
X154999999Y-104000000D01*
X154999999Y-104000000D01*
X154999999Y-104000000D01*
X154999999Y-103999999D01*
X154999999Y-103999999D01*
X154999999Y-103999999D01*
X154999999Y-103999999D01*
X154999999Y-103999999D01*
X155000000Y-103999999D01*
X155000000Y-103999999D01*
X155000000Y-103999999D01*
X155000000Y-103999999D01*
X155000000Y-103999999D01*
X155000000Y-103999999D01*
X155000000Y-103999999D01*
X155000000Y-103999999D01*
X155000000Y-103999999D01*
X155000000Y-103999999D01*
X155000000Y-103999999D01*
X155000000Y-103999999D01*
X155000001Y-103999999D01*
X155000001Y-103999999D01*
X155000001Y-103999999D01*
X155000001Y-103999999D01*
X155000001Y-103999999D01*
X155000001Y-103999999D01*
X155000001Y-104000000D01*
X155000001Y-104000000D01*
X155000001Y-104000000D01*
X155000001Y-104000000D01*
X155000001Y-104000000D01*
X155000001Y-104000000D01*
X155000001Y-104000000D01*
X155000000Y-104000000D01*
X155000000Y-104000000D02*
X155000001Y-104000000D01*
X155000001Y-104000000D01*
X155000001Y-104000000D01*
X155000001Y-104000000D01*
X155000001Y-104000000D01*
X155000001Y-104000000D01*
X155000001Y-104000001D01*
X155000001Y-104000001D01*
X155000001Y-104000001D01*
X155000001Y-104000001D01*
X155000001Y-104000001D01*
X155000001Y-104000001D01*
X155000001Y-104000001D01*
X155000000Y-104000001D01*
X155000000Y-104000001D01*
X155000000Y-104000001D01*
X155000000Y-104000001D01*
X155000000Y-104000001D01*
X155000000Y-104000001D01*
X155000000Y-104000001D01*
X155000000Y-104000001D01*
X155000000Y-104000001D01*
X155000000Y-104000001D01*
X155000000Y-104000001D01*
X155000000Y-104000001D01*
X154999999Y-104000001D01*
X154999999Y-104000001D01*
X154999999Y-104000001D01*
X154999999Y-104000001D01*
X154999999Y-104000001D01*
X154999999Y-104000001D01*
X154999999Y-104000000D01*
X154999999Y-104000000D01*
X154999999Y-104000000D01*
X154999999Y-104000000D01*
X154999999Y-104000000D01*
X154999999Y-104000000D01*
X155000000Y-104000000D01*
D13*
X155000000Y-104000000D02*
X155500000Y-104000000D01*
D15*
X155000000Y-107000000D02*
X154999999Y-107000000D01*
X154999999Y-107000000D01*
X154999999Y-107000000D01*
X154999999Y-107000000D01*
X154999999Y-107000000D01*
X154999999Y-107000000D01*
X154999999Y-107000000D01*
X154999999Y-106999999D01*
X154999999Y-106999999D01*
X154999999Y-106999999D01*
X154999999Y-106999999D01*
X154999999Y-106999999D01*
X155000000Y-106999999D01*
X155000000Y-106999999D01*
X155000000Y-106999999D01*
X155000000Y-106999999D01*
X155000000Y-106999999D01*
X155000000Y-106999999D01*
X155000000Y-106999999D01*
X155000000Y-106999999D01*
X155000000Y-106999999D01*
X155000000Y-106999999D01*
X155000000Y-106999999D01*
X155000000Y-106999999D01*
X155000001Y-106999999D01*
X155000001Y-106999999D01*
X155000001Y-106999999D01*
X155000001Y-106999999D01*
X155000001Y-106999999D01*
X155000001Y-106999999D01*
X155000001Y-107000000D01*
X155000001Y-107000000D01*
X155000001Y-107000000D01*
X155000001Y-107000000D01*
X155000001Y-107000000D01*
X155000001Y-107000000D01*
X155000001Y-107000000D01*
X155000000Y-107000000D01*
X155000000Y-107000000D02*
X155000001Y-107000000D01*
X155000001Y-107000000D01*
X155000001Y-107000000D01*
X155000001Y-107000000D01*
X155000001Y-107000000D01*
X155000001Y-107000000D01*
X155000001Y-107000001D01*
X155000001Y-107000001D01*
X155000001Y-107000001D01*
X155000001Y-107000001D01*
X155000001Y-107000001D01*
X155000001Y-107000001D01*
X155000001Y-107000001D01*
X155000000Y-107000001D01*
X155000000Y-107000001D01*
X155000000Y-107000001D01*
X155000000Y-107000001D01*
X155000000Y-107000001D01*
X155000000Y-107000001D01*
X155000000Y-107000001D01*
X155000000Y-107000001D01*
X155000000Y-107000001D01*
X155000000Y-107000001D01*
X155000000Y-107000001D01*
X155000000Y-107000001D01*
X154999999Y-107000001D01*
X154999999Y-107000001D01*
X154999999Y-107000001D01*
X154999999Y-107000001D01*
X154999999Y-107000001D01*
X154999999Y-107000001D01*
X154999999Y-107000000D01*
X154999999Y-107000000D01*
X154999999Y-107000000D01*
X154999999Y-107000000D01*
X154999999Y-107000000D01*
X154999999Y-107000000D01*
X155000000Y-107000000D01*
D13*
X155000000Y-107000000D02*
X155500000Y-107000000D01*
X158000000Y-104000000D02*
X157500000Y-104000000D01*
D15*
X158000000Y-104000000D02*
X157999999Y-104000000D01*
X157999999Y-104000000D01*
X157999999Y-104000000D01*
X157999999Y-104000000D01*
X157999999Y-104000000D01*
X157999999Y-104000000D01*
X157999999Y-104000000D01*
X157999999Y-103999999D01*
X157999999Y-103999999D01*
X157999999Y-103999999D01*
X157999999Y-103999999D01*
X157999999Y-103999999D01*
X158000000Y-103999999D01*
X158000000Y-103999999D01*
X158000000Y-103999999D01*
X158000000Y-103999999D01*
X158000000Y-103999999D01*
X158000000Y-103999999D01*
X158000000Y-103999999D01*
X158000000Y-103999999D01*
X158000000Y-103999999D01*
X158000000Y-103999999D01*
X158000000Y-103999999D01*
X158000000Y-103999999D01*
X158000001Y-103999999D01*
X158000001Y-103999999D01*
X158000001Y-103999999D01*
X158000001Y-103999999D01*
X158000001Y-103999999D01*
X158000001Y-103999999D01*
X158000001Y-104000000D01*
X158000001Y-104000000D01*
X158000001Y-104000000D01*
X158000001Y-104000000D01*
X158000001Y-104000000D01*
X158000001Y-104000000D01*
X158000001Y-104000000D01*
X158000000Y-104000000D01*
X158000000Y-104000000D02*
X158000001Y-104000000D01*
X158000001Y-104000000D01*
X158000001Y-104000000D01*
X158000001Y-104000000D01*
X158000001Y-104000000D01*
X158000001Y-104000000D01*
X158000001Y-104000001D01*
X158000001Y-104000001D01*
X158000001Y-104000001D01*
X158000001Y-104000001D01*
X158000001Y-104000001D01*
X158000001Y-104000001D01*
X158000001Y-104000001D01*
X158000000Y-104000001D01*
X158000000Y-104000001D01*
X158000000Y-104000001D01*
X158000000Y-104000001D01*
X158000000Y-104000001D01*
X158000000Y-104000001D01*
X158000000Y-104000001D01*
X158000000Y-104000001D01*
X158000000Y-104000001D01*
X158000000Y-104000001D01*
X158000000Y-104000001D01*
X158000000Y-104000001D01*
X157999999Y-104000001D01*
X157999999Y-104000001D01*
X157999999Y-104000001D01*
X157999999Y-104000001D01*
X157999999Y-104000001D01*
X157999999Y-104000001D01*
X157999999Y-104000000D01*
X157999999Y-104000000D01*
X157999999Y-104000000D01*
X157999999Y-104000000D01*
X157999999Y-104000000D01*
X157999999Y-104000000D01*
X158000000Y-104000000D01*
D13*
X158000000Y-107000000D02*
X157500000Y-107000000D01*
D15*
X158000000Y-107000000D02*
X157999999Y-107000000D01*
X157999999Y-107000000D01*
X157999999Y-107000000D01*
X157999999Y-107000000D01*
X157999999Y-107000000D01*
X157999999Y-107000000D01*
X157999999Y-107000000D01*
X157999999Y-106999999D01*
X157999999Y-106999999D01*
X157999999Y-106999999D01*
X157999999Y-106999999D01*
X157999999Y-106999999D01*
X158000000Y-106999999D01*
X158000000Y-106999999D01*
X158000000Y-106999999D01*
X158000000Y-106999999D01*
X158000000Y-106999999D01*
X158000000Y-106999999D01*
X158000000Y-106999999D01*
X158000000Y-106999999D01*
X158000000Y-106999999D01*
X158000000Y-106999999D01*
X158000000Y-106999999D01*
X158000000Y-106999999D01*
X158000001Y-106999999D01*
X158000001Y-106999999D01*
X158000001Y-106999999D01*
X158000001Y-106999999D01*
X158000001Y-106999999D01*
X158000001Y-106999999D01*
X158000001Y-107000000D01*
X158000001Y-107000000D01*
X158000001Y-107000000D01*
X158000001Y-107000000D01*
X158000001Y-107000000D01*
X158000001Y-107000000D01*
X158000001Y-107000000D01*
X158000000Y-107000000D01*
X158000000Y-107000000D02*
X158000001Y-107000000D01*
X158000001Y-107000000D01*
X158000001Y-107000000D01*
X158000001Y-107000000D01*
X158000001Y-107000000D01*
X158000001Y-107000000D01*
X158000001Y-107000001D01*
X158000001Y-107000001D01*
X158000001Y-107000001D01*
X158000001Y-107000001D01*
X158000001Y-107000001D01*
X158000001Y-107000001D01*
X158000001Y-107000001D01*
X158000000Y-107000001D01*
X158000000Y-107000001D01*
X158000000Y-107000001D01*
X158000000Y-107000001D01*
X158000000Y-107000001D01*
X158000000Y-107000001D01*
X158000000Y-107000001D01*
X158000000Y-107000001D01*
X158000000Y-107000001D01*
X158000000Y-107000001D01*
X158000000Y-107000001D01*
X158000000Y-107000001D01*
X157999999Y-107000001D01*
X157999999Y-107000001D01*
X157999999Y-107000001D01*
X157999999Y-107000001D01*
X157999999Y-107000001D01*
X157999999Y-107000001D01*
X157999999Y-107000000D01*
X157999999Y-107000000D01*
X157999999Y-107000000D01*
X157999999Y-107000000D01*
X157999999Y-107000000D01*
X157999999Y-107000000D01*
X158000000Y-107000000D01*
D13*
D15*
X158000000Y-107000000D02*
X157999999Y-107000000D01*
X157999999Y-107000000D01*
X157999999Y-107000000D01*
X157999999Y-107000000D01*
X157999999Y-107000000D01*
X157999999Y-107000000D01*
X157999999Y-107000000D01*
X157999999Y-106999999D01*
X157999999Y-106999999D01*
X157999999Y-106999999D01*
X157999999Y-106999999D01*
X157999999Y-106999999D01*
X158000000Y-106999999D01*
X158000000Y-106999999D01*
X158000000Y-106999999D01*
X158000000Y-106999999D01*
X158000000Y-106999999D01*
X158000000Y-106999999D01*
X158000000Y-106999999D01*
X158000000Y-106999999D01*
X158000000Y-106999999D01*
X158000000Y-106999999D01*
X158000000Y-106999999D01*
X158000000Y-106999999D01*
X158000001Y-106999999D01*
X158000001Y-106999999D01*
X158000001Y-106999999D01*
X158000001Y-106999999D01*
X158000001Y-106999999D01*
X158000001Y-106999999D01*
X158000001Y-107000000D01*
X158000001Y-107000000D01*
X158000001Y-107000000D01*
X158000001Y-107000000D01*
X158000001Y-107000000D01*
X158000001Y-107000000D01*
X158000001Y-107000000D01*
X158000000Y-107000000D01*
X158000000Y-107000000D02*
X158000001Y-107000000D01*
X158000001Y-107000000D01*
X158000001Y-107000000D01*
X158000001Y-107000000D01*
X158000001Y-107000000D01*
X158000001Y-107000000D01*
X158000001Y-107000001D01*
X158000001Y-107000001D01*
X158000001Y-107000001D01*
X158000001Y-107000001D01*
X158000001Y-107000001D01*
X158000001Y-107000001D01*
X158000001Y-107000001D01*
X158000000Y-107000001D01*
X158000000Y-107000001D01*
X158000000Y-107000001D01*
X158000000Y-107000001D01*
X158000000Y-107000001D01*
X158000000Y-107000001D01*
X158000000Y-107000001D01*
X158000000Y-107000001D01*
X158000000Y-107000001D01*
X158000000Y-107000001D01*
X158000000Y-107000001D01*
X158000000Y-107000001D01*
X157999999Y-107000001D01*
X157999999Y-107000001D01*
X157999999Y-107000001D01*
X157999999Y-107000001D01*
X157999999Y-107000001D01*
X157999999Y-107000001D01*
X157999999Y-107000000D01*
X157999999Y-107000000D01*
X157999999Y-107000000D01*
X157999999Y-107000000D01*
X157999999Y-107000000D01*
X157999999Y-107000000D01*
X158000000Y-107000000D01*
D10*
D15*
X158538000Y-106500000D02*
X158537999Y-106500000D01*
X158537999Y-106500000D01*
X158537999Y-106500000D01*
X158537999Y-106500000D01*
X158537999Y-106500000D01*
X158537999Y-106500000D01*
X158537999Y-106500000D01*
X158537999Y-106499999D01*
X158537999Y-106499999D01*
X158537999Y-106499999D01*
X158537999Y-106499999D01*
X158537999Y-106499999D01*
X158538000Y-106499999D01*
X158538000Y-106499999D01*
X158538000Y-106499999D01*
X158538000Y-106499999D01*
X158538000Y-106499999D01*
X158538000Y-106499999D01*
X158538000Y-106499999D01*
X158538000Y-106499999D01*
X158538000Y-106499999D01*
X158538000Y-106499999D01*
X158538000Y-106499999D01*
X158538000Y-106499999D01*
X158538001Y-106499999D01*
X158538001Y-106499999D01*
X158538001Y-106499999D01*
X158538001Y-106499999D01*
X158538001Y-106499999D01*
X158538001Y-106499999D01*
X158538001Y-106500000D01*
X158538001Y-106500000D01*
X158538001Y-106500000D01*
X158538001Y-106500000D01*
X158538001Y-106500000D01*
X158538001Y-106500000D01*
X158538001Y-106500000D01*
X158538000Y-106500000D01*
X158538000Y-106500000D02*
X158538001Y-106500000D01*
X158538001Y-106500000D01*
X158538001Y-106500000D01*
X158538001Y-106500000D01*
X158538001Y-106500000D01*
X158538001Y-106500000D01*
X158538001Y-106500001D01*
X158538001Y-106500001D01*
X158538001Y-106500001D01*
X158538001Y-106500001D01*
X158538001Y-106500001D01*
X158538001Y-106500001D01*
X158538001Y-106500001D01*
X158538000Y-106500001D01*
X158538000Y-106500001D01*
X158538000Y-106500001D01*
X158538000Y-106500001D01*
X158538000Y-106500001D01*
X158538000Y-106500001D01*
X158538000Y-106500001D01*
X158538000Y-106500001D01*
X158538000Y-106500001D01*
X158538000Y-106500001D01*
X158538000Y-106500001D01*
X158538000Y-106500001D01*
X158537999Y-106500001D01*
X158537999Y-106500001D01*
X158537999Y-106500001D01*
X158537999Y-106500001D01*
X158537999Y-106500001D01*
X158537999Y-106500001D01*
X158537999Y-106500000D01*
X158537999Y-106500000D01*
X158537999Y-106500000D01*
X158537999Y-106500000D01*
X158537999Y-106500000D01*
X158537999Y-106500000D01*
X158538000Y-106500000D01*
D10*
D15*
X158663000Y-106500000D02*
X158662999Y-106500000D01*
X158662999Y-106500000D01*
X158662999Y-106500000D01*
X158662999Y-106500000D01*
X158662999Y-106500000D01*
X158662999Y-106500000D01*
X158662999Y-106500000D01*
X158662999Y-106499999D01*
X158662999Y-106499999D01*
X158662999Y-106499999D01*
X158662999Y-106499999D01*
X158662999Y-106499999D01*
X158663000Y-106499999D01*
X158663000Y-106499999D01*
X158663000Y-106499999D01*
X158663000Y-106499999D01*
X158663000Y-106499999D01*
X158663000Y-106499999D01*
X158663000Y-106499999D01*
X158663000Y-106499999D01*
X158663000Y-106499999D01*
X158663000Y-106499999D01*
X158663000Y-106499999D01*
X158663000Y-106499999D01*
X158663001Y-106499999D01*
X158663001Y-106499999D01*
X158663001Y-106499999D01*
X158663001Y-106499999D01*
X158663001Y-106499999D01*
X158663001Y-106499999D01*
X158663001Y-106500000D01*
X158663001Y-106500000D01*
X158663001Y-106500000D01*
X158663001Y-106500000D01*
X158663001Y-106500000D01*
X158663001Y-106500000D01*
X158663001Y-106500000D01*
X158663000Y-106500000D01*
X158663000Y-106500000D02*
X158663001Y-106500000D01*
X158663001Y-106500000D01*
X158663001Y-106500000D01*
X158663001Y-106500000D01*
X158663001Y-106500000D01*
X158663001Y-106500000D01*
X158663001Y-106500001D01*
X158663001Y-106500001D01*
X158663001Y-106500001D01*
X158663001Y-106500001D01*
X158663001Y-106500001D01*
X158663001Y-106500001D01*
X158663001Y-106500001D01*
X158663000Y-106500001D01*
X158663000Y-106500001D01*
X158663000Y-106500001D01*
X158663000Y-106500001D01*
X158663000Y-106500001D01*
X158663000Y-106500001D01*
X158663000Y-106500001D01*
X158663000Y-106500001D01*
X158663000Y-106500001D01*
X158663000Y-106500001D01*
X158663000Y-106500001D01*
X158663000Y-106500001D01*
X158662999Y-106500001D01*
X158662999Y-106500001D01*
X158662999Y-106500001D01*
X158662999Y-106500001D01*
X158662999Y-106500001D01*
X158662999Y-106500001D01*
X158662999Y-106500000D01*
X158662999Y-106500000D01*
X158662999Y-106500000D01*
X158662999Y-106500000D01*
X158662999Y-106500000D01*
X158662999Y-106500000D01*
X158663000Y-106500000D01*
D10*
X158538000Y-106501000D02*
G75*
G02*
X158663000Y-106500000I62500J500D01*
G01*
X158663000Y-106501000D02*
G75*
G02*
X158538000Y-106500000I-62500J500D01*
G01*
%TD*%
M02*
