M48
; DRILL file KiCad 10.0.0 date 2026-05-18T13:48:14
; FORMAT={-:-/ absolute / metric / decimal}
; #@! TF.CreationDate,2026-05-18T13:48:14+02:00
; #@! TF.GenerationSoftware,Kicad,Pcbnew,10.0.0
; #@! TF.FileFunction,Plated,1,2,PTH
FMAT,2
METRIC
; #@! TA.AperFunction,Plated,PTH,ViaDrill
T1C0.300
%
G90
G05
T1
X144.5Y-103.0
X146.0Y-94.5
X146.5Y-96.5
X148.0Y-103.0
X149.0Y-105.5
X149.8Y-106.441
X150.5Y-97.25
X151.35Y-99.923
X151.5Y-104.5
X151.5Y-106.0
X153.0Y-93.0
X154.5Y-105.5
X156.0Y-103.5
X156.512Y-102.885
X157.5Y-95.5
X158.794Y-93.574
X159.022Y-94.674
X159.5Y-106.5
X160.075Y-103.645
X160.1Y-92.9
X160.5Y-100.949
X166.5Y-103.5
M30
